<svg width="62" height="30" viewBox="0 0 62 30" fill="none" xmlns="http://www.w3.org/2000/svg">
<path d="M1.99951 12.725C0.89517 12.725 -7.58171e-05 13.6203 -7.58171e-05 14.7246C-7.58171e-05 15.829 0.89517 16.7242 1.99951 16.7242V14.7246V12.725ZM60.7349 16.1385C61.5158 15.3576 61.5158 14.0916 60.7349 13.3107L48.0097 0.58539C47.2288 -0.195498 45.9627 -0.195498 45.1818 0.58539C44.4009 1.36628 44.4009 2.63235 45.1818 3.41323L56.4932 14.7246L45.1818 26.036C44.4009 26.8169 44.4009 28.0829 45.1818 28.8638C45.9627 29.6447 47.2288 29.6447 48.0097 28.8638L60.7349 16.1385ZM1.99951 14.7246V16.7242H59.321V14.7246V12.725H1.99951V14.7246Z" fill="#8D1A14"/>
</svg>
