<svg width="337" height="134" viewBox="0 0 337 134" fill="none" xmlns="http://www.w3.org/2000/svg">
<g clip-path="url(#clip0_42_10)">
<mask id="mask0_42_10" style="mask-type:luminance" maskUnits="userSpaceOnUse" x="0" y="0" width="337" height="134">
<path d="M336.704 0H0V133.78H336.704V0Z" fill="white"/>
</mask>
<g mask="url(#mask0_42_10)">
<path d="M97.8171 0C77.9213 0 61.7278 14.7801 61.7278 32.958C61.7278 51.136 77.9121 65.9161 97.8171 65.9161C117.722 65.9161 133.906 51.1275 133.906 32.958C133.906 14.7885 117.713 0 97.8171 0ZM97.8171 64.1876C78.9646 64.1876 63.6204 50.1832 63.6204 32.958C63.6204 15.7328 78.9646 1.72842 97.8171 1.72842C116.67 1.72842 132.014 15.7413 132.014 32.958C132.014 50.1748 116.679 64.1876 97.8171 64.1876Z" fill="#343F50"/>
<path d="M102.47 33.312L51.3873 133.636L0 33.1687H17.1353L55.7911 109.093H58.4685L96.9675 33.312H102.47Z" fill="#8D1A14"/>
<path d="M141.19 97.9889L139.861 100.139H110.308V131.638H153.423L152.094 133.78H102.47V83.6725H150.284L148.955 85.814H110.308V97.9889H141.19Z" fill="#8D1A14"/>
<path d="M212.686 126.124H213.47V83.6725H215.825V133.78H209.547L165.416 85.814H163.062V133.78H160.717V83.6725H173.725L212.686 126.124Z" fill="#8D1A14"/>
<path d="M240.125 83.6725H232.286V133.788H240.125V83.6725Z" fill="#8D1A14"/>
<path d="M271.874 95.9147L252.588 133.78H249.837L275.475 83.5966L293.349 118.46L311.066 83.6724L336.704 133.78H328.155L308.868 95.9147H307.539L290.367 129.632L273.278 95.9147H271.874Z" fill="#8D1A14"/>
</g>
</g>
<defs>
<clipPath id="clip0_42_10">
<rect width="336.704" height="133.78" fill="white"/>
</clipPath>
</defs>
</svg>
