<svg width="153" height="195" viewBox="0 0 153 195" fill="none" xmlns="http://www.w3.org/2000/svg">
<g clip-path="url(#clip0_1_594)">
<path d="M99.6847 48.8484C99.3422 55.0138 98.9312 69.1197 101.962 72.5326C103.566 74.483 104.359 76.9756 104.18 79.4955C104.129 79.9455 104.258 80.3973 104.539 80.7523C104.82 81.1073 105.229 81.3368 105.678 81.3905H105.875C106.294 81.3941 106.698 81.2443 107.014 80.9695C107.329 80.6946 107.534 80.3137 107.588 79.8985C107.74 78.168 107.548 76.4246 107.023 74.7688C106.498 73.1131 105.651 71.5778 104.531 70.2516C102.615 62.5874 102.179 54.6271 103.247 46.799C103.267 46.5278 103.222 46.2557 103.116 46.0052C103.011 45.7548 102.847 45.533 102.639 45.3584C102.432 45.1841 102.187 45.0614 101.923 45.0003C101.66 44.9392 101.386 44.9414 101.123 45.0068C92.9116 46.7818 84.5297 47.6445 76.1292 47.5793C67.7412 47.652 59.3707 46.7979 51.1696 45.0325C50.9056 44.9705 50.6309 44.9699 50.3667 45.0309C50.1025 45.0918 49.8557 45.2126 49.6454 45.3841C49.4389 45.5596 49.2768 45.7817 49.1726 46.0322C49.0685 46.2826 49.0251 46.5542 49.0461 46.8247C50.1176 54.6531 49.6787 62.6147 47.7531 70.2773C46.6308 71.6023 45.7825 73.1374 45.2578 74.7935C44.733 76.4496 44.5422 78.1936 44.6963 79.9242C44.7487 80.3409 44.9521 80.7239 45.2677 81.0005C45.5834 81.2771 45.9894 81.4281 46.4088 81.4248H46.6229C47.0704 81.367 47.4771 81.1346 47.7545 80.7781C48.0319 80.4216 48.1575 79.9699 48.1042 79.5212C47.915 77.0013 48.7135 74.5068 50.3304 72.5668C53.3616 69.1368 52.9506 55.0481 52.6166 48.8827C60.3841 50.3584 68.2746 51.0877 76.1806 51.0608C84.0677 51.0726 91.938 50.3318 99.6847 48.8484Z" fill="black"/>
<path d="M127.99 130.946L106.01 124.326L99.8622 116.608C99.7187 116.427 99.5401 116.276 99.337 116.166C99.1339 116.055 98.9106 115.987 98.6805 115.965C98.4507 115.935 98.2171 115.956 97.9965 116.027C97.7758 116.099 97.5737 116.218 97.4047 116.377L95.2213 118.263L95.1614 113.684C99.2791 111.035 102.806 107.562 105.52 103.483C108.234 99.4048 110.077 94.8085 110.933 89.9828C112.696 89.9332 114.375 89.2196 115.635 87.9845C116.896 86.7494 117.644 85.0837 117.732 83.32V77.9177C117.696 76.2693 117.024 74.699 115.857 73.5359C115.925 73.3816 116.062 73.2787 116.088 73.1157C116.336 71.4007 122.082 30.7295 106.31 21.5628C102.665 19.4622 98.4348 18.6101 94.2623 19.1361C91.4281 17.0181 73.3955 5.10742 45.7814 21.5028C29.9836 30.8839 35.6605 71.3922 35.9088 73.1072C35.9806 73.3954 36.1284 73.659 36.337 73.8703C35.3295 74.9817 34.7524 76.4174 34.7101 77.9177V83.32C34.7918 85.0017 35.4814 86.5963 36.6503 87.8064C37.8193 89.0165 39.3878 89.7596 41.0635 89.897C41.9131 94.7297 43.7531 99.3337 46.4677 103.419C49.1822 107.504 52.7123 110.982 56.8356 113.633L56.7757 118.22L54.6008 116.334C54.4321 116.174 54.23 116.055 54.0093 115.984C53.7886 115.912 53.5548 115.891 53.325 115.922C53.0949 115.944 52.8716 116.012 52.6685 116.123C52.4654 116.233 52.2868 116.384 52.1433 116.565L45.9869 124.283L24.0498 130.886C20.0812 132.006 16.5875 134.396 14.1016 137.691C11.6158 140.985 10.2741 145.004 10.2813 149.133V192.951C10.2813 193.406 10.4617 193.842 10.7829 194.164C11.104 194.486 11.5396 194.666 11.9938 194.666C12.448 194.666 12.8835 194.486 13.2047 194.164C13.5259 193.842 13.7063 193.406 13.7063 192.951V149.133C13.6758 145.745 14.7678 142.443 16.8114 139.743C18.855 137.043 21.7349 135.098 25.0002 134.213L34.9327 131.22L32.6979 140.532C32.5998 140.945 32.6574 141.378 32.8598 141.751C33.0622 142.123 33.3949 142.407 33.7939 142.548L40.2329 144.828L38.4433 155.899C38.4 156.162 38.4185 156.431 38.4973 156.686C38.576 156.94 38.713 157.173 38.8972 157.365L74.7569 194.906C75.0762 195.216 75.503 195.388 75.9471 195.388C76.3912 195.388 76.818 195.216 77.1373 194.906L113.108 157.365C113.289 157.17 113.423 156.937 113.502 156.684C113.58 156.43 113.601 156.162 113.562 155.899L111.764 144.837L118.203 142.548C118.602 142.407 118.935 142.123 119.137 141.751C119.34 141.378 119.397 140.945 119.299 140.532L117.098 131.237L127.074 134.238C130.327 135.13 133.194 137.075 135.227 139.769C137.261 142.463 138.347 145.756 138.316 149.133V192.951C138.316 193.406 138.497 193.842 138.818 194.164C139.139 194.486 139.575 194.666 140.029 194.666C140.483 194.666 140.919 194.486 141.24 194.164C141.561 193.842 141.741 193.406 141.741 192.951V149.133C141.738 145.016 140.393 141.012 137.911 137.73C135.43 134.447 131.946 132.065 127.99 130.946ZM98.261 120.115L102.91 125.989L90.3321 150.342L90.2636 150.479L90.1009 150.788L78.3874 137.334L98.261 120.115ZM75.9985 179.6L72.5221 172.491L74.7312 154.904C74.7312 154.904 74.8254 154.904 74.8682 154.973C74.911 155.041 74.911 155.11 74.971 155.161C75.2746 155.405 75.6521 155.538 76.0413 155.539C76.4305 155.538 76.808 155.405 77.1116 155.161C77.1715 155.11 77.163 155.024 77.2143 154.973C77.2657 154.921 77.3257 154.973 77.3599 154.904L79.569 172.483L78.1648 175.355L75.9985 179.6ZM75.9985 139.778L80.725 145.206L75.9985 151.08L71.2805 145.197L75.9985 139.778ZM68.9943 147.83L71.7001 151.208L69.7307 166.883L63.4972 154.141L68.9943 147.83ZM82.2748 166.875L80.3054 151.2L83.0112 147.83L88.4997 154.141L82.2748 166.875ZM43.872 83.7573C43.872 83.3025 43.6915 82.8663 43.3704 82.5446C43.0492 82.223 42.6137 82.0423 42.1595 82.0423C41.7053 82.0423 41.2697 82.223 40.9486 82.5446C40.6274 82.8663 40.447 83.3025 40.447 83.7573C40.447 84.6577 40.6439 85.4723 40.7124 86.3984C40.0118 86.2188 39.386 85.8218 38.9246 85.2642C38.4631 84.7066 38.1898 84.017 38.1437 83.2943V77.892C38.2371 76.9239 38.7071 76.0314 39.452 75.4073C40.197 74.7832 41.1572 74.4775 42.1252 74.5564C42.5794 74.5564 43.015 74.3757 43.3361 74.054C43.6573 73.7324 43.8377 73.2962 43.8377 72.8414C43.8377 72.3865 43.6573 71.9503 43.3361 71.6287C43.015 71.307 42.5794 71.1263 42.1252 71.1263C41.122 71.1261 40.128 71.3182 39.1968 71.6923C38.4776 65.9213 34.8128 31.99 47.5282 24.4355C68.4892 12.0017 83.2595 16.8809 89.356 20.148C88.0967 20.4934 86.8611 20.9202 85.657 21.4256C85.4499 21.5144 85.2623 21.6432 85.105 21.8046C84.9477 21.966 84.8238 22.157 84.7402 22.3665C84.6567 22.5759 84.6153 22.7999 84.6183 23.0254C84.6214 23.251 84.6688 23.4737 84.7579 23.6809C84.9448 24.092 85.2862 24.4127 85.7078 24.5733C86.1295 24.7338 86.5974 24.7213 87.0098 24.5384C89.6947 23.0971 92.691 22.3357 95.7372 22.3208C98.7835 22.3058 101.787 23.0377 104.486 24.4526C117.201 31.8443 113.579 65.6126 112.817 71.6151C112.017 71.329 111.175 71.1727 110.326 71.1521C109.871 71.1521 109.436 71.3328 109.115 71.6544C108.793 71.976 108.613 72.4122 108.613 72.8671C108.613 73.3219 108.793 73.7581 109.115 74.0798C109.436 74.4014 109.871 74.5821 110.326 74.5821C111.294 74.5033 112.254 74.8089 112.999 75.433C113.744 76.0571 114.214 76.9496 114.307 77.9177V83.32C114.245 84.1173 113.91 84.8687 113.36 85.4481C112.809 86.0275 112.077 86.3994 111.285 86.5013C111.362 85.5838 111.559 84.7092 111.559 83.7831C111.559 83.5578 111.514 83.3348 111.428 83.1267C111.342 82.9187 111.216 82.7296 111.057 82.5704C110.898 82.4111 110.709 82.2848 110.501 82.1986C110.294 82.1124 110.071 82.068 109.846 82.068C109.621 82.068 109.398 82.1124 109.191 82.1986C108.983 82.2848 108.794 82.4111 108.635 82.5704C108.476 82.7296 108.35 82.9187 108.264 83.1267C108.178 83.3348 108.134 83.5578 108.134 83.7831C107.996 92.2261 104.55 100.277 98.5395 106.199C92.5287 112.121 84.4346 115.44 76.0027 115.44C67.5708 115.44 59.4768 112.121 53.466 106.199C47.4553 100.277 44.0096 92.2261 43.872 83.7831V83.7573ZM60.2435 115.485C65.1102 118.017 70.5141 119.339 75.9985 119.339C81.4829 119.339 86.8867 118.017 91.7535 115.485L91.8305 121.153L75.9985 134.899L60.175 121.179L60.2435 115.485ZM53.7017 120.098L73.5838 137.317L61.8703 150.788L61.7077 150.479L61.6392 150.342L49.0608 125.989L53.7017 120.098ZM43.5123 145.995L46.4578 147.075C46.64 147.136 46.8308 147.168 47.023 147.169C47.4248 147.167 47.813 147.023 48.1196 146.763C48.4262 146.503 48.6316 146.143 48.7 145.746C48.7684 145.35 48.6953 144.942 48.4936 144.594C48.2919 144.246 47.9744 143.98 47.5967 143.842L36.3883 139.864L38.7259 130.114L46.1582 127.876L58.608 151.963L74.0205 183.442L72.1111 187.18L41.954 155.65L43.5123 145.995ZM115.609 139.838L104.409 143.808C104.031 143.945 103.714 144.211 103.512 144.559C103.31 144.907 103.237 145.315 103.306 145.712C103.374 146.109 103.579 146.468 103.886 146.729C104.192 146.989 104.581 147.133 104.983 147.135C105.173 147.145 105.364 147.125 105.548 147.075L108.485 146.029L110.043 155.65L75.9985 191.245L74.5942 189.779L77.163 184.788C77.3185 184.666 77.4517 184.518 77.5568 184.351L81.4271 176.445V176.359L93.3632 151.954L105.813 127.867L113.245 130.105L115.609 139.838Z" fill="black"/>
</g>
<defs>
<clipPath id="clip0_1_594">
<rect width="153" height="195" fill="white"/>
</clipPath>
</defs>
</svg>
