<svg width="224" height="200" viewBox="0 0 224 200" fill="none" xmlns="http://www.w3.org/2000/svg">
<g clip-path="url(#clip0_1_599)">
<path d="M152.952 95.2832C152.578 95.2821 152.205 95.3549 151.859 95.4976C151.514 95.6403 151.202 95.8498 150.937 96.1145C150.673 96.3792 150.465 96.6937 150.323 97.0398C150.18 97.3859 150.109 97.7569 150.109 98.1314V113.151C150.11 113.525 150.18 113.895 150.323 114.24C150.466 114.585 150.682 114.898 150.946 115.162C151.21 115.426 151.523 115.634 151.868 115.777C152.213 115.919 152.579 115.992 152.952 115.99H199.689C200.062 115.991 200.428 115.918 200.773 115.776C201.117 115.633 201.431 115.424 201.695 115.16C201.958 114.897 202.166 114.583 202.309 114.239C202.452 113.894 202.531 113.524 202.531 113.151V98.1314C202.532 97.7573 202.46 97.3867 202.318 97.0409C202.175 96.6951 201.959 96.3807 201.695 96.1161C201.431 95.8515 201.118 95.6416 200.773 95.4986C200.428 95.3557 200.062 95.2826 199.689 95.2832H152.952ZM153.344 98.5334H199.271V112.74H153.344V98.5334Z" fill="black"/>
<path d="M152.952 123.586C152.579 123.585 152.213 123.657 151.868 123.799C151.523 123.941 151.21 124.151 150.946 124.415C150.682 124.678 150.466 124.992 150.323 125.337C150.18 125.682 150.11 126.052 150.109 126.426V173.519C150.109 174.266 150.251 175.006 150.536 175.697C150.821 176.387 151.238 177.014 151.765 177.542C152.292 178.071 152.92 178.49 153.609 178.775C154.298 179.061 155.04 179.208 155.785 179.207H196.847C197.593 179.208 198.334 179.062 199.023 178.777C199.713 178.491 200.339 178.072 200.867 177.544C201.394 177.016 201.81 176.388 202.096 175.698C202.381 175.007 202.532 174.267 202.531 173.519V126.426C202.531 126.052 202.452 125.683 202.309 125.338C202.166 124.993 201.958 124.68 201.695 124.416C201.431 124.152 201.117 123.943 200.773 123.801C200.428 123.658 200.062 123.585 199.689 123.586H152.952ZM153.344 126.828H166.479V141.043H153.344V126.828ZM169.723 126.828H182.875V141.043H169.723V126.828ZM186.118 126.828H199.271V141.043H186.118V126.828ZM153.344 144.285H166.479V158.5H153.344V144.285ZM169.723 144.285H182.875V158.5H169.723V144.285ZM186.118 144.285H199.271V158.5H186.118V144.285ZM153.344 161.75H166.479V175.957H155.768C155.125 175.954 154.506 175.696 154.053 175.24C153.599 174.783 153.344 174.164 153.344 173.519V161.75ZM169.723 161.75H182.875V175.957H169.723V161.75ZM186.118 161.75H199.271V173.519C199.271 173.84 199.206 174.157 199.083 174.454C198.96 174.75 198.78 175.019 198.554 175.245C198.327 175.472 198.056 175.651 197.76 175.774C197.464 175.896 197.15 175.958 196.83 175.957H186.118V161.75Z" fill="black"/>
<path d="M84.9489 18.6727C72.5754 19.0363 60.8327 24.2178 52.2088 33.1173C43.585 42.0169 38.7575 53.9341 38.7577 66.3394V91.4429C38.757 96.6024 37.4678 101.68 35.0109 106.214C29.4845 116.409 27.751 128.239 30.1118 139.597L23.6167 141.573C21.8755 142.099 20.3184 143.105 19.1188 144.475C17.9192 145.844 17.1262 147.524 16.8314 149.322L9.45722 194.508C9.22994 195.902 8.58564 197.893 8.96301 199.254C6.74618 200.844 10.7298 201.312 11.6422 202.389C12.5545 203.465 13.692 204.33 14.9708 204.923C16.2497 205.516 17.6413 205.824 19.0505 205.824H153.63C155.039 205.824 156.431 205.516 157.709 204.923C158.988 204.33 160.126 203.465 161.038 202.389C161.95 201.312 163.148 201.361 163.526 200C163.903 198.639 163.45 195.902 163.223 194.508L162.378 189.359H200.896C204.549 189.358 208.053 187.902 210.635 185.314C213.217 182.725 214.663 179.215 214.663 175.555V98.944C214.663 95.2837 213.217 91.7731 210.635 89.1843C208.053 86.5955 204.549 85.1407 200.896 85.1392H151.718C149.909 85.1388 148.115 85.4955 146.443 86.1891C144.772 86.8827 143.259 87.8997 141.98 89.1817C140.7 90.4636 139.685 91.9852 138.992 93.6603C138.3 95.3354 137.942 97.1309 137.942 98.944V106.762C137.856 106.579 137.766 106.396 137.678 106.214C135.219 101.681 133.933 96.6028 133.931 91.4429V66.3394C133.931 59.96 132.655 53.6453 130.176 47.7694C127.697 41.8935 124.065 36.5757 119.498 32.131C114.932 27.6864 109.522 24.2052 103.589 21.8935C97.6561 19.5817 91.3206 18.4865 84.9575 18.6727H84.9489ZM87.8167 22.1025C99.286 22.4834 110.163 27.3054 118.158 35.555C126.154 43.8045 130.642 54.8394 130.688 66.3394V91.4429C130.684 97.1417 132.102 102.751 134.81 107.762C136.063 110.074 137.113 112.489 137.951 114.981V138.203L107.276 128.889C106.778 128.737 106.341 128.429 106.03 128.01C105.72 127.592 105.553 127.084 105.552 126.562V117.094C110.553 113.871 114.67 109.441 117.518 104.211C120.367 98.9803 121.854 93.1165 121.854 87.1578V71.5654C121.853 70.6403 121.518 69.7475 120.907 69.0545C120.295 68.3615 119.45 67.9161 118.534 67.802C102.314 65.7939 87.2534 58.3414 75.7994 46.6586C75.3499 46.2036 74.7906 45.8701 74.1778 45.6889C73.565 45.5076 72.9156 45.4846 72.2916 45.622C71.6675 45.7595 71.0907 46.0526 70.6102 46.4747C70.1297 46.8967 69.7611 47.4337 69.5433 48.0356C68.1229 51.9925 65.9277 55.6264 63.0909 58.7249C60.2541 61.8235 56.8314 64.3247 53.0196 66.0828C52.3639 66.3877 51.8123 66.8748 51.4236 67.4855C51.0349 68.0963 50.8256 68.8053 50.8262 69.5297V87.1578C50.8254 93.1161 52.3226 98.9792 55.1705 104.21C58.0183 109.44 62.1277 113.87 67.1279 117.094V126.562C67.1271 127.083 66.9599 127.591 66.65 128.01C66.3401 128.428 65.9015 128.737 65.4039 128.889L33.2356 138.656C31.1137 128.133 32.75 117.197 37.8616 107.762C40.5762 102.753 41.9998 97.1432 42.001 91.4429V66.3394C42.0244 60.3945 43.2369 54.5145 45.5686 49.0481C47.9004 43.5817 51.2996 38.6396 55.5716 34.5147C59.8436 30.3898 64.9018 27.1661 70.4395 25.0341C75.9771 22.902 81.8877 21.9051 87.8167 22.1025ZM73.0427 48.7712C73.125 48.7623 73.2122 48.772 73.2902 48.8001C73.3681 48.8281 73.4371 48.8738 73.495 48.9332C85.4559 61.1358 101.185 68.9228 118.124 71.0265C118.255 71.0436 118.378 71.1071 118.466 71.2061C118.553 71.3051 118.601 71.4326 118.602 71.5648V87.1578C118.49 95.6617 115.041 103.779 109 109.753C102.96 115.727 94.8097 119.077 86.323 119.077C77.8364 119.077 69.6946 115.727 63.6542 109.753C57.6138 103.779 54.1642 95.6617 54.0524 87.1578V69.5292C54.0516 69.426 54.0836 69.3251 54.1377 69.2373C54.1918 69.1495 54.2672 69.0786 54.3596 69.0331C58.559 67.0918 62.331 64.3322 65.4551 60.9151C68.5792 57.498 70.993 53.4921 72.5562 49.1304C72.5902 49.0352 72.6482 48.9511 72.7269 48.8877C72.8055 48.8244 72.8999 48.784 73 48.7712H73.0427ZM151.726 88.3809H200.896C202.281 88.3795 203.654 88.6513 204.933 89.1817C206.213 89.712 207.376 90.4901 208.356 91.4712C209.335 92.4524 210.105 93.6177 210.635 94.9C211.164 96.1823 211.438 97.5562 211.437 98.944V175.555C211.437 176.942 211.165 178.315 210.635 179.597C210.105 180.878 209.327 182.042 208.347 183.022C207.368 184.002 206.204 184.779 204.925 185.309C203.646 185.839 202.28 186.111 200.896 186.109H151.726C148.934 186.107 146.258 184.995 144.284 183.016C142.31 181.036 141.203 178.353 141.203 175.555V98.944C141.202 97.5577 141.468 96.1849 141.997 94.9037C142.525 93.6226 143.306 92.4586 144.284 91.4776C145.261 90.4967 146.42 89.7184 147.698 89.187C148.976 88.6556 150.343 88.3818 151.726 88.3809ZM70.3627 118.941C75.3178 121.442 80.7835 122.745 86.3316 122.745C91.8797 122.745 97.3538 121.442 102.309 118.941V126.562C102.309 127.782 102.702 128.97 103.427 129.949C104.153 130.929 105.172 131.649 106.338 132.002L107.302 132.291L86.3401 193.249L65.3868 132.291L66.3512 132.002C67.5132 131.645 68.5309 130.924 69.2531 129.945C69.9753 128.966 70.3637 127.78 70.3627 126.562V118.941ZM62.2886 133.234L82.9347 193.285L53.5232 168.875L59.9159 162.049C60.1858 161.766 60.3965 161.429 60.5304 161.061C60.6643 160.692 60.7172 160.3 60.6926 159.909C60.6679 159.518 60.5643 159.136 60.3853 158.787C60.2063 158.439 59.9547 158.131 59.6513 157.884L44.1604 145.473L59.2502 134.157L62.2886 133.234ZM110.4 133.234L113.456 134.157L128.545 145.473L113.055 157.884C112.748 158.128 112.495 158.433 112.312 158.78C112.129 159.127 112.025 159.508 111.996 159.899C111.967 160.29 112.02 160.684 112.15 161.054C112.28 161.424 112.48 161.763 112.747 162.049L119.131 168.875L89.7541 193.285L110.4 133.234ZM50.1178 136.92L41.7706 143.181C41.4167 143.433 41.1237 143.763 40.9171 144.145C40.7105 144.528 40.5926 144.952 40.5757 145.387C40.5588 145.822 40.6469 146.255 40.8232 146.652C40.9995 147.05 41.2581 147.401 41.5913 147.68L57.1506 160.142L50.7493 166.959C50.4836 167.242 50.2833 167.577 50.1519 167.943C50.0205 168.309 49.9652 168.697 49.9897 169.085C50.0143 169.473 50.1205 169.853 50.297 170.199C50.4735 170.545 50.7146 170.851 51.0139 171.098L84.1637 198.622C84.745 199.105 85.4745 199.369 86.2292 199.369C86.9838 199.369 87.7133 199.105 88.2946 198.622L121.444 171.098C121.744 170.851 121.993 170.545 122.17 170.199C122.346 169.853 122.444 169.473 122.469 169.085C122.493 168.697 122.438 168.309 122.306 167.943C122.175 167.577 121.975 167.242 121.709 166.959L115.316 160.142L130.876 147.68C131.209 147.401 131.476 147.05 131.652 146.652C131.828 146.255 131.908 145.822 131.891 145.387C131.874 144.952 131.756 144.528 131.55 144.145C131.343 143.763 131.059 143.433 130.705 143.181H130.876L122.528 136.92L137.925 141.599V175.555C137.925 177.368 138.283 179.163 138.975 180.838C139.668 182.513 140.683 184.035 141.962 185.317C143.242 186.599 144.755 187.616 146.426 188.31C148.098 189.003 149.892 189.36 151.701 189.359H159.066L159.988 195.03C160.14 195.96 160.087 196.912 159.835 197.82C159.583 198.727 159.138 199.568 158.529 200.286C157.92 201.004 157.163 201.58 156.31 201.975C155.456 202.37 154.527 202.575 153.587 202.574H19.0164C18.0778 202.572 17.145 202.366 16.2937 201.97C15.4424 201.574 14.6903 200.997 14.0832 200.28C13.4761 199.562 13.0369 198.722 12.7859 197.815C12.5348 196.909 12.4809 195.958 12.6322 195.03L20.0064 149.852C20.2007 148.653 20.7277 147.532 21.5256 146.618C22.3236 145.703 23.3614 145.031 24.5214 144.678L50.1178 136.92Z" fill="black"/>
</g>
<defs>
<clipPath id="clip0_1_599">
<rect width="224" height="200" fill="white"/>
</clipPath>
</defs>
</svg>
