<svg width="180" height="181" viewBox="0 0 180 181" fill="none" xmlns="http://www.w3.org/2000/svg">
<g clip-path="url(#clip0_1_607)">
<path d="M140.308 100.749C118.893 100.749 101.387 117.818 100.632 139.086H91.4314V79.5069C112.665 78.7507 129.708 61.2163 129.708 39.7678C129.708 17.8399 111.896 0 90.0029 0C68.1093 0 50.2979 17.8399 50.2979 39.7678C50.2979 61.2166 67.3404 78.7507 88.5743 79.5069V111.1H79.3814C78.6264 89.8329 61.1196 72.7634 39.705 72.7634C17.8118 72.7638 0 90.6034 0 112.531C0 125.114 6.045 137.088 16.1707 144.563C23.0257 149.624 31.1639 152.299 39.705 152.299C47.6614 152.299 55.3382 149.95 61.9054 145.506C72.47 138.358 78.9286 126.647 79.3818 113.962H88.5743V178.854C88.5743 179.644 89.2139 180.285 90.0029 180.285C90.7918 180.285 91.4314 179.644 91.4314 178.854V141.948H100.631C101.085 154.643 107.552 166.36 118.131 173.508C124.693 177.941 132.362 180.285 140.308 180.285C148.079 180.285 155.605 178.036 162.073 173.783C173.306 166.395 180.013 153.959 180.013 140.517C180.013 118.589 162.202 100.749 140.308 100.749ZM32.7518 148.78C27.5675 147.793 22.67 145.696 18.3118 142.576C19.1404 137.287 21.3604 125.43 23.6454 122.012C24.8564 120.201 27.0689 118.902 29.1721 118.014C28.7136 118.838 28.3761 119.765 28.2825 120.782C27.9075 124.852 30.2336 127.69 30.3329 127.809C30.6136 128.145 31.0189 128.322 31.4296 128.322C31.7029 128.322 31.9782 128.244 32.2204 128.082C32.5082 127.89 32.8004 127.696 33.0921 127.502C33.5725 128.702 34.3586 129.975 35.5343 130.911L32.7518 148.78ZM35.0921 94.002L36.1939 96.8715C36.3454 97.2657 36.6629 97.5726 37.0614 97.7103C37.4596 97.848 37.8989 97.8026 38.2607 97.5855C40.5479 96.2144 42.4061 94.648 43.8439 92.8988C45.2707 95.6252 47.795 97.4653 51.3879 98.3871C51.3643 99.2027 51.3168 99.9585 51.26 100.622C50.9336 104.436 50.1064 107.768 49.0471 109.536C47.64 111.885 43.8104 115.193 39.7021 115.193C35.5939 115.193 31.7646 111.885 30.3571 109.536C29.3525 107.859 28.5246 104.521 28.1429 100.605C28.0864 99.9428 28.0393 99.1887 28.0164 98.3753C31.1564 97.5411 33.5243 96.0781 35.0921 94.002ZM28.0571 95.3831C28.2636 91.8099 29.11 87.8279 31.5171 85.2016C33.4268 83.1176 36.1811 82.0613 39.7036 82.0613C41.5532 82.0613 43.1889 82.3557 44.6039 82.9341C44.5107 87.5489 42.4168 91.2541 38.2293 94.1994L36.6371 90.0536C36.4214 89.492 35.8732 89.125 35.2771 89.1368C34.6764 89.1479 34.1468 89.5346 33.9521 90.1037C33.0779 92.6595 31.1389 94.3954 28.0571 95.3831ZM45.7521 90.0006C46.5936 88.3505 47.1232 86.5681 47.3425 84.6594C47.5311 84.8325 47.715 85.0113 47.8893 85.2016C50.3014 87.834 51.1464 91.8271 51.3504 95.406C48.3296 94.4609 46.5239 92.711 45.7521 90.0006ZM47.5375 124.883L44.5146 122.898C45.5275 121.412 46.1236 119.514 46.4325 117.73C47.3207 118.617 48.16 119.784 48.2764 121.045C48.4243 122.649 47.9679 124.003 47.5375 124.883ZM43.5657 117.364C43.1518 119.646 42.1418 122.735 39.7018 122.735C37.2736 122.735 36.2604 119.647 35.8429 117.365C37.0568 117.796 38.3536 118.055 39.7032 118.055C41.0536 118.055 42.3511 117.795 43.5657 117.364ZM31.1275 121.045C31.2436 119.784 32.0832 118.617 32.9714 117.73C33.2804 119.514 33.8764 121.412 34.8893 122.898L31.8668 124.883C31.4357 124.001 30.9796 122.648 31.1275 121.045ZM39.705 149.437C38.3157 149.437 36.9389 149.356 35.5775 149.206L38.2296 132.173C38.6889 132.268 39.1789 132.322 39.705 132.322C40.2311 132.322 40.7211 132.268 41.1807 132.173L43.8332 149.208C42.4696 149.36 41.0918 149.437 39.705 149.437ZM39.705 129.46C37.02 129.46 35.9471 127.165 35.5561 125.877C36.1389 125.495 36.6493 125.164 37.0275 124.923C37.7914 125.348 38.6764 125.596 39.7018 125.596C40.7271 125.596 41.6125 125.348 42.3761 124.923C42.7554 125.164 43.2675 125.497 43.8521 125.879C43.46 127.171 42.3864 129.46 39.705 129.46ZM46.6579 148.779L43.8757 130.911C45.0504 129.976 45.8364 128.705 46.3168 127.505C46.6071 127.698 46.8975 127.891 47.1839 128.082C47.4264 128.244 47.7018 128.322 47.9746 128.322C48.385 128.322 48.7907 128.145 49.0714 127.809C49.1707 127.69 51.4968 124.852 51.1218 120.782C51.0282 119.764 50.69 118.836 50.2304 118.011C52.3361 118.899 54.5521 120.199 55.7646 122.012C58.0504 125.431 60.2711 137.294 61.0989 142.58C57.1829 145.836 52.2179 147.701 46.6579 148.779ZM63.665 140.568C62.8204 135.537 60.7039 124.257 58.1389 120.42C55.9475 117.142 51.5571 115.295 48.5779 114.37C49.8879 113.23 50.8979 112.011 51.4986 111.008C52.7896 108.853 53.7407 105.157 54.1079 100.866C54.5764 95.396 54.2432 87.902 49.9946 83.2661C47.5214 80.5672 44.0589 79.199 39.7032 79.199C35.3479 79.199 31.8854 80.5672 29.4125 83.2657C25.1639 87.9016 24.8307 95.396 25.2989 100.866L25.3007 100.883C25.7282 105.265 26.6786 108.955 27.9086 111.008C28.5093 112.011 29.5193 113.23 30.83 114.371C27.8507 115.296 23.4625 117.143 21.2714 120.419C18.7068 124.255 16.5907 135.532 15.7461 140.564C7.63214 133.587 2.85714 123.3 2.85714 112.531C2.85714 92.1812 19.3871 75.6251 39.705 75.6251C60.0229 75.6251 76.5529 92.1812 76.5529 112.531C76.5529 123.391 71.8 133.592 63.665 140.568ZM53.155 39.7678C53.155 19.4178 69.685 2.86166 90.0029 2.86166C110.321 2.86166 126.851 19.4178 126.851 39.7678C126.851 50.9651 121.845 61.0124 113.958 67.7867C113.112 62.7483 110.997 51.4884 108.435 47.6563C106.244 44.3793 101.854 42.5318 98.875 41.6071C100.185 40.4667 101.195 39.248 101.796 38.2454C103.087 36.0902 104.038 32.3936 104.405 28.1037C104.874 22.6332 104.54 15.1389 100.292 10.503C97.8186 7.8041 94.3561 6.43587 90.0004 6.43587C85.645 6.43587 82.1825 7.80411 79.7096 10.5027C75.4611 15.1385 75.1279 22.6329 75.5961 28.1037C75.8679 31.7276 76.8336 35.0689 78.2061 38.2454C78.8068 39.248 79.8164 40.4671 81.1268 41.6075C78.1475 42.5321 73.7582 44.3797 71.5671 47.6567C69.0054 51.4881 66.8907 62.7448 66.0443 67.7845C58.1596 61.0099 53.155 50.9637 53.155 39.7678ZM90 52.8828C90.6536 52.8828 91.275 52.7458 91.8396 52.5007L94.0386 60.7466C91.8311 64.3995 90.4118 65.2848 90 65.2848C89.5882 65.2848 88.1689 64.3995 85.9614 60.7466L88.1604 52.5007C88.725 52.7458 89.3464 52.8828 90 52.8828ZM88.2082 48.2265V45.1388C88.7936 45.2364 89.3914 45.2915 90.0011 45.2915C90.6096 45.2915 91.2068 45.2361 91.7914 45.1391V48.2265C91.7914 49.2159 90.9879 50.0211 89.9996 50.0211C89.0114 50.0211 88.2082 49.2159 88.2082 48.2265ZM90.0011 42.4302C85.8929 42.4302 82.0636 39.1221 80.6561 36.773C79.6514 35.0961 78.8236 31.7576 78.4418 27.8422C78.3929 27.2666 78.3511 26.6213 78.3254 25.9291C81.9561 25.3447 85.2929 23.867 88.2879 21.5129C88.0075 23.0482 87.4168 24.5183 86.5075 25.9542C86.2057 26.4307 86.2114 27.0402 86.5225 27.5106C86.8414 28.0471 87.3404 28.2035 87.9468 28.1326C91.6893 27.5127 94.55 25.9438 96.4854 23.4567C97.5882 24.9869 99.3086 26.3774 101.581 27.5725C101.393 31.0326 100.697 34.1335 99.3454 36.773C97.9389 39.1218 94.1093 42.4302 90.0011 42.4302ZM85.8089 50.2279L83.9793 57.0891C82.1089 53.292 80.4621 48.9419 79.4929 45.2403C81.4829 44.403 83.3675 43.9333 84.2122 43.7462C84.5807 43.9433 84.9611 44.1254 85.3511 44.2917V48.2265C85.3511 48.9437 85.5186 49.6205 85.8089 50.2279ZM91.2796 18.0531C91.2329 17.4944 90.8643 17.0144 90.3375 16.8255C89.81 16.6359 89.2214 16.7733 88.8314 17.1757C85.7257 20.3772 82.2779 22.3006 78.3339 23.0267C78.4986 19.3523 79.3157 15.1647 81.8146 12.4378C83.7243 10.3538 86.4786 9.29753 90.0011 9.29753C93.5232 9.29753 96.2775 10.3542 98.1871 12.4378C100.992 15.4984 101.679 20.3993 101.702 24.3488C100.017 23.2953 98.4454 21.8863 98.01 20.1439C97.8629 19.5562 97.3625 19.1252 96.7604 19.0672C96.1575 19.0107 95.585 19.3377 95.3293 19.8868C94.3182 22.0566 92.6993 23.5844 90.4168 24.5083C91.1871 22.459 91.47 20.3246 91.2796 18.0531ZM94.6489 48.2265V44.2928C95.0418 44.125 95.425 43.9412 95.7968 43.7426C96.9375 43.9862 98.7089 44.4813 100.505 45.2468C99.5361 48.9469 97.89 53.2941 96.0207 57.0891L94.1911 50.2279C94.4814 49.6205 94.6489 48.9437 94.6489 48.2265ZM90.0029 76.6739C82.0321 76.6739 74.6454 74.1252 68.6096 69.7998C69.4396 64.5058 71.6582 52.6631 73.9414 49.2485C74.6532 48.1843 75.7114 47.2979 76.8896 46.5667C78.0318 50.7075 79.9211 55.5126 82.01 59.5311C86.4889 68.1469 89.1314 68.1469 90 68.1469C90.8686 68.1469 93.5111 68.1469 97.99 59.5311C100.077 55.5169 101.964 50.7168 103.107 46.5792C104.306 47.3226 105.366 48.2097 106.061 49.2488C108.344 52.6642 110.563 64.5093 111.393 69.8023C105.358 74.1259 97.9721 76.6739 90.0029 76.6739ZM160.505 171.391C154.504 175.337 147.52 177.423 140.308 177.423C132.933 177.423 125.817 175.249 119.729 171.136C119.458 170.953 119.192 170.765 118.927 170.576C119.753 165.355 121.973 153.615 124.259 150.234C125.376 148.582 127.345 147.361 129.294 146.492C130.702 149.644 134.16 153.878 140.323 153.878C146.485 153.878 149.944 149.644 151.352 146.492C153.301 147.361 155.27 148.582 156.386 150.234C158.668 153.609 160.886 165.323 161.715 170.556C161.318 170.84 160.916 171.12 160.505 171.391ZM140.306 143.179C136.199 143.179 132.369 139.871 130.961 137.522C129.958 135.848 129.131 132.516 128.749 128.608C135.517 127.547 140.713 124.582 144.242 119.772C145.878 122.888 148.459 125.457 151.946 127.439C151.923 127.853 151.895 128.245 151.864 128.608C151.537 132.422 150.71 135.755 149.651 137.522C148.244 139.871 144.415 143.179 140.306 143.179ZM148.66 145.478C147.741 147.443 145.377 151.016 140.324 151.016C135.269 151.016 132.904 147.441 131.986 145.478C133.488 145.001 134.658 144.762 134.933 144.709C136.557 145.512 138.378 146.041 140.307 146.041C142.239 146.041 144.064 145.51 145.69 144.704C145.919 144.747 147.115 144.987 148.66 145.478ZM152.101 138.994C152.658 138.065 153.151 136.847 153.562 135.42L154.874 145.118C152.858 143.889 150.635 143.072 148.935 142.565C150.365 141.366 151.464 140.059 152.101 138.994ZM145.854 116.281C145.675 115.744 145.196 115.364 144.634 115.31C144.07 115.256 143.53 115.54 143.253 116.033C140.229 121.42 135.427 124.601 128.608 125.731C128.56 121.685 129.163 116.413 132.12 113.187C134.03 111.103 136.784 110.047 140.306 110.047C143.829 110.047 146.583 111.103 148.493 113.187C151.066 115.995 151.857 120.354 151.987 124.105C148.939 122.058 146.921 119.483 145.854 116.281ZM131.687 142.573C129.98 143.083 127.751 143.905 125.736 145.14L127.058 135.365C127.473 136.842 127.965 138.081 128.511 138.994C129.151 140.061 130.253 141.372 131.687 142.573ZM164.28 168.549C163.433 163.564 161.318 152.422 158.753 148.629C158.559 148.342 158.346 148.068 158.12 147.803L154.829 123.459C154.617 119.103 153.559 114.483 150.598 111.252C148.125 108.553 144.662 107.185 140.307 107.185C135.951 107.185 132.489 108.553 130.016 111.251C127.054 114.484 125.996 119.106 125.785 123.463L122.487 147.851C122.277 148.101 122.076 148.359 121.894 148.628C119.327 152.426 117.209 163.59 116.364 168.566C108.219 161.59 103.461 151.384 103.461 140.516C103.461 120.166 119.991 103.61 140.309 103.61C160.627 103.61 177.157 120.166 177.157 140.516C177.156 151.403 172.415 161.577 164.28 168.549Z" fill="black"/>
</g>
<defs>
<clipPath id="clip0_1_607">
<rect width="180" height="181" fill="white"/>
</clipPath>
</defs>
</svg>
