<svg width="140" height="128" viewBox="0 0 140 128" fill="none" xmlns="http://www.w3.org/2000/svg">
<g clip-path="url(#clip0_1_814)">
<path d="M93.3223 25.2256C96.1131 25.2256 98.41 27.3854 98.4102 30.0752V36.7002C98.4102 37.5105 98.0359 38.3043 97.4082 38.835C96.9546 39.2179 96.4047 39.4258 95.8379 39.4258C95.6981 39.4258 95.56 39.4136 95.415 39.3848C94.8571 39.2816 94.2908 39.1979 93.7217 39.1201V43.8008C100.948 44.8424 107.587 47.7289 113.153 51.9678L115.323 49.6426C115.236 49.5831 115.149 49.5237 115.055 49.4629L115.054 49.4619C114.631 49.1883 114.359 48.7553 114.293 48.2451C114.216 47.6741 114.411 47.0857 114.798 46.667L117.998 43.1973C118.58 42.5626 119.381 42.1996 120.239 42.166L120.4 42.1621C121.204 42.1664 121.965 42.4739 122.556 43.0264L127.378 47.5205C128.01 48.1061 128.371 48.9121 128.403 49.7744C128.436 50.6375 128.135 51.4655 127.548 52.0996L127.547 52.0986L124.347 55.5684C123.982 55.965 123.444 56.2001 122.908 56.2002C122.879 56.2002 122.837 56.199 122.787 56.1934C122.78 56.1929 122.773 56.193 122.766 56.1924C122.331 56.1562 121.929 55.9647 121.645 55.6445L121.528 55.4971C121.469 55.4128 121.407 55.332 121.345 55.249L119.195 57.5605C125.881 65.0794 129.96 75.0067 129.96 85.8701C129.96 109.305 111 128.376 87.6943 128.376C64.3889 128.376 45.4287 109.305 45.4287 85.8701C45.4289 64.4901 61.2066 46.75 81.6719 43.8018V39.1377C81.4433 39.1676 81.2144 39.1976 80.9854 39.2305L79.9561 39.3867C79.2393 39.5011 78.53 39.2933 77.9639 38.8086L77.9629 38.8076C77.352 38.2823 76.9844 37.5001 76.9844 36.7002V30.0752C76.9845 27.3855 79.2805 25.2257 82.0713 25.2256H93.3223ZM87.6953 45.5449C65.59 45.5451 47.6016 63.6333 47.6016 85.8691C47.6016 108.105 65.59 126.193 87.6953 126.193C109.801 126.193 127.789 108.105 127.789 85.8691C127.789 63.6332 109.801 45.5449 87.6953 45.5449ZM87.7002 49.7344C107.511 49.7344 123.627 65.9458 123.627 85.8691C123.627 105.794 107.51 122.004 87.6953 122.004C67.8809 122.004 51.7695 105.793 51.7695 85.8691C51.7695 65.9496 67.8859 49.7345 87.7002 49.7344ZM87.6943 51.9141C69.084 51.9143 53.9336 67.1432 53.9336 85.8691C53.9336 104.59 69.079 119.824 87.6943 119.824C106.31 119.824 121.455 104.59 121.455 85.8691C121.455 67.143 106.31 51.9141 87.6943 51.9141ZM108.35 66.9639C108.942 66.9708 109.422 67.4562 109.422 68.0547V70.2012C110.286 70.2829 111.154 70.3852 112.01 70.5127C112.541 70.5893 112.936 71.0458 112.937 71.5889V101.779C112.937 102.097 112.798 102.395 112.559 102.602C112.318 102.809 112.003 102.898 111.696 102.856H111.693C104.119 101.753 96.3667 102.363 87.9893 104.738L87.9492 104.749H87.9434C87.9421 104.749 87.9407 104.75 87.9395 104.75C87.9306 104.751 87.9223 104.751 87.915 104.752C87.8486 104.767 87.7752 104.779 87.6934 104.779C87.6115 104.779 87.5381 104.767 87.4717 104.752C87.4656 104.751 87.4576 104.75 87.4521 104.749H87.4385L87.3984 104.738C79.0215 102.368 71.2686 101.753 63.6934 102.856H63.6904C63.3838 102.898 63.0686 102.809 62.8281 102.602C62.5878 102.394 62.4502 102.091 62.4502 101.779V71.5889C62.4504 71.0517 62.8468 70.5893 63.3789 70.5127C64.2331 70.39 65.1006 70.2847 65.9658 70.2021V68.0547C65.9658 67.4626 66.4435 66.9711 67.0371 66.9639C74.3571 66.8739 81.3041 68.6549 87.6934 72.2451C94.0778 68.65 101.03 66.8789 108.35 66.9639ZM41.3545 100.874C41.9562 100.874 42.4337 101.361 42.4404 101.961V101.964C42.4404 102.563 41.9543 103.054 41.3545 103.054H24.7695C24.1699 103.054 23.6846 102.563 23.6846 101.964C23.6847 101.365 24.17 100.874 24.7695 100.874H41.3545ZM107.251 69.1436C100.715 69.236 94.5113 70.9157 88.7803 74.1348V101.85C94.5422 98.8224 100.741 97.2415 107.251 97.1572V69.1436ZM68.1377 97.1533C74.6475 97.2422 80.8465 98.8176 86.6084 101.845V74.1348C80.8765 70.9155 74.6733 69.2351 68.1377 69.1426V97.1533ZM65.9707 72.3955C65.521 72.4395 65.0737 72.4879 64.627 72.5439V100.536C68.6557 100.047 72.7332 100.023 76.9209 100.466C73.7347 99.6735 70.4444 99.291 67.0703 99.334H67.0596C66.7793 99.3274 66.5029 99.2277 66.292 99.0156C66.0886 98.8111 65.9708 98.5356 65.9707 98.2441V72.3955ZM109.422 98.2393C109.422 98.526 109.307 98.807 109.101 99.0098C108.888 99.2233 108.602 99.3225 108.334 99.3291H108.323C104.952 99.2898 101.67 99.6714 98.4922 100.459C102.671 100.018 106.743 100.043 110.77 100.531L110.766 72.5391C110.319 72.4831 109.87 72.4336 109.422 72.3896V98.2393ZM72.4229 91.2354C76.3522 91.6387 80.1863 92.6671 83.8145 94.2949L83.9131 94.3457C84.389 94.6196 84.5882 95.2204 84.3652 95.7334L84.3643 95.7344C84.1857 96.1419 83.7875 96.3837 83.374 96.3838C83.2228 96.3838 83.0725 96.3477 82.9365 96.2891L82.9326 96.2881C79.5117 94.7513 75.9038 93.7841 72.2021 93.4023C71.6047 93.3401 71.1718 92.8072 71.2334 92.208C71.295 91.611 71.8228 91.1729 72.4229 91.2354ZM102.971 91.2305C103.535 91.1718 104.033 91.559 104.144 92.0938L104.16 92.2031C104.222 92.8023 103.79 93.3352 103.192 93.3975C99.491 93.7791 95.8822 94.7512 92.4609 96.2832L92.457 96.2842C92.322 96.3424 92.1766 96.3789 92.0195 96.3789C91.6061 96.3788 91.2079 96.1369 91.0293 95.7295L91.0283 95.7285C90.7914 95.1834 91.026 94.5333 91.5811 94.2891C95.2087 92.6617 99.0421 91.6337 102.971 91.2305ZM72.4229 85.4307C76.1067 85.8088 79.7022 86.7366 83.1309 88.1924L83.8145 88.4902L83.8174 88.4912C84.3587 88.7395 84.6042 89.3793 84.3652 89.9287L84.3643 89.9297C84.1856 90.337 83.7874 90.579 83.374 90.5791C83.2228 90.5791 83.0725 90.543 82.9365 90.4844L82.9326 90.4824C79.5118 88.9457 75.9038 87.9794 72.2021 87.5977C71.6047 87.5354 71.1718 87.0026 71.2334 86.4033C71.2948 85.8062 71.8226 85.3682 72.4229 85.4307ZM102.971 85.4307C103.571 85.3682 104.099 85.8063 104.16 86.4033C104.222 87.0025 103.79 87.5354 103.192 87.5977C99.491 87.9793 95.8822 88.9514 92.4609 90.4834L92.457 90.4844C92.322 90.5426 92.1766 90.5791 92.0195 90.5791C91.6061 90.579 91.2079 90.3371 91.0293 89.9297L91.0283 89.9287C90.7913 89.3836 91.026 88.7335 91.5811 88.4893C95.2087 86.8619 99.0421 85.8339 102.971 85.4307ZM72.4229 79.6309C76.3522 80.0342 80.1862 81.0626 83.8145 82.6904L83.9131 82.7402C84.3891 83.0135 84.5872 83.6099 84.3652 84.127L84.3643 84.1299C84.1856 84.5371 83.7874 84.7792 83.374 84.7793C83.2228 84.7793 83.0725 84.7432 82.9365 84.6846L82.9326 84.6826C79.5118 83.1459 75.9038 82.1796 72.2021 81.7979C71.6047 81.7356 71.1718 81.2027 71.2334 80.6035C71.2948 80.0063 71.8226 79.5684 72.4229 79.6309ZM103.083 79.6201C103.636 79.6192 104.103 80.039 104.16 80.5986C104.222 81.1978 103.79 81.7307 103.192 81.793C99.4911 82.1746 95.8821 83.1458 92.4609 84.6777L92.457 84.6797C92.322 84.7379 92.1766 84.7744 92.0195 84.7744C91.606 84.7743 91.2079 84.5315 91.0293 84.124C90.7921 83.5789 91.0259 82.9288 91.5811 82.6846C95.2087 81.0572 99.042 80.0292 102.971 79.626L103.083 79.6201ZM34.3301 82.5156C34.9299 82.5156 35.416 83.0064 35.416 83.6055C35.416 84.2058 34.9336 84.6904 34.3301 84.6904H11.1279C10.5308 84.6902 10.043 84.2069 10.043 83.6055C10.043 83.0065 10.5283 82.5158 11.1279 82.5156H34.3301ZM72.418 73.8203C76.3473 74.2236 80.1814 75.252 83.8096 76.8799L83.8105 76.8809C84.3606 77.1298 84.5974 77.771 84.3594 78.3184C84.1808 78.7258 83.7826 78.9686 83.3691 78.9688C83.2179 78.9688 83.0676 78.9336 82.9316 78.875L82.9277 78.873C79.5067 77.3362 75.8981 76.369 72.1963 75.9873C71.5948 75.9296 71.1673 75.388 71.2285 74.793C71.2901 74.196 71.8179 73.7579 72.418 73.8203ZM102.971 73.8203C103.572 73.7577 104.099 74.2027 104.16 74.793C104.222 75.3922 103.79 75.925 103.192 75.9873C99.491 76.3689 95.8822 77.3411 92.4609 78.873L92.457 78.875C92.322 78.9332 92.1766 78.9688 92.0195 78.9688C91.606 78.9687 91.2079 78.7268 91.0293 78.3193L91.0283 78.3184C90.7917 77.7738 91.0252 77.1246 91.5791 76.8799L92.2617 76.582C95.6869 75.1262 99.2869 74.1984 102.971 73.8203ZM21.2295 64.1494C21.8292 64.1496 22.3145 64.6403 22.3145 65.2393C22.3144 65.8382 21.8291 66.3289 21.2295 66.3291H19.1611C18.5576 66.3291 18.0752 65.8445 18.0752 65.2441C18.0752 64.6453 18.5607 64.1547 19.1602 64.1543L21.2295 64.1494ZM39.6445 64.1494C40.2442 64.1496 40.7295 64.6403 40.7295 65.2393C40.7294 65.8382 40.2442 66.3289 39.6445 66.3291H26.5693C25.9721 66.329 25.4844 65.8456 25.4844 65.2441C25.4844 64.6451 25.9696 64.1544 26.5693 64.1543L39.6445 64.1494ZM114.852 53.3232C115.84 54.1582 116.791 55.0407 117.698 55.9648L119.95 53.5381C119.105 52.6083 118.155 51.7334 117.1 50.9111L114.852 53.3232ZM121.084 44.6152C120.659 44.2193 119.994 44.2453 119.599 44.6699L116.625 47.8926C116.94 48.102 117.25 48.313 117.552 48.5322C117.6 48.5622 117.648 48.5972 117.696 48.6377L118.33 49.1123C119.767 50.2213 121.039 51.4354 122.136 52.7373L122.172 52.7734C122.225 52.8272 122.271 52.8849 122.311 52.9395L122.774 53.5205C122.85 53.6185 122.923 53.7187 122.997 53.8174L125.96 50.6064C126.354 50.1785 126.328 49.5074 125.906 49.1094L121.084 44.6152ZM91.5469 38.877C89.048 38.6662 86.4752 38.6795 83.8438 38.9062V43.542C85.1132 43.4265 86.3958 43.3652 87.6953 43.3652C88.995 43.3652 90.2774 43.4265 91.5469 43.542V38.877ZM82.0674 27.4043C80.4353 27.4044 79.1514 28.6232 79.1514 30.0752V36.7002C79.1515 36.849 79.2354 37.0331 79.3701 37.1523L79.4268 37.1953C79.4844 37.2316 79.5453 37.2494 79.6064 37.2393L79.6074 37.2383C82.4265 36.7758 85.1926 36.5449 87.8994 36.5449C90.2677 36.5449 92.5832 36.7225 94.8359 37.0771L95.7979 37.2393L95.7998 37.2402C95.8502 37.2497 95.9143 37.2416 96.0049 37.1631L96.0098 37.1592C96.1488 37.0431 96.2342 36.8562 96.2344 36.7002V30.0752C96.2344 28.6278 94.9501 27.4044 93.3184 27.4043H82.0674Z" fill="#8D1A14"/>
</g>
<defs>
<clipPath id="clip0_1_814">
<rect width="140" height="128" fill="white"/>
</clipPath>
</defs>
</svg>
