<svg width="136" height="130" viewBox="0 0 136 130" fill="none" xmlns="http://www.w3.org/2000/svg">
<g clip-path="url(#clip0_1_810)">
<path d="M109.884 105.03L108.401 104.764C108.106 104.711 107.903 104.527 107.816 104.237C107.498 103.183 107.068 102.153 106.551 101.19C106.411 100.929 106.426 100.653 106.599 100.407L107.454 99.159C108.159 98.1482 108.039 96.7747 107.16 95.8994L104.991 93.7279C104.117 92.8525 102.746 92.7268 101.741 93.4329L100.495 94.2937C100.249 94.463 99.9734 94.4823 99.7126 94.3421C99.3649 94.1535 99.0075 93.9842 98.6501 93.8246L98.6549 36.5193C98.6549 31.4944 94.5739 27.4077 89.556 27.4077L74.0483 27.4125C73.7537 26.1019 72.585 25.1201 71.1892 25.1201H66.9344C66.4949 21.8508 63.6938 19.3262 60.3131 19.3262C56.9372 19.3262 54.1361 21.8508 53.6965 25.1153H49.4417C48.046 25.1153 46.8773 26.097 46.5826 27.4077L33.1223 27.4126C28.1044 27.4126 24.0234 31.4993 24.0234 36.5242V111.008C24.0234 116.033 28.1044 120.12 33.1223 120.12H75.7967C75.7001 120.884 75.9416 121.677 76.5163 122.257L78.6895 124.434C79.5637 125.299 80.9305 125.42 81.9446 124.719L83.181 123.858C83.4321 123.689 83.7026 123.67 83.9634 123.81C84.9293 124.332 85.9532 124.758 87.0157 125.082C87.2958 125.164 87.4794 125.372 87.5325 125.662L87.8029 127.152C88.0299 128.366 89.0828 129.246 90.3142 129.246H93.381C94.6174 129.246 95.6703 128.361 95.8827 127.147L96.158 125.648C96.2063 125.357 96.3898 125.149 96.6699 125.067C97.7179 124.753 98.7466 124.327 99.7173 123.805C99.9781 123.665 100.258 123.679 100.5 123.844L101.746 124.714C102.76 125.415 104.127 125.29 104.996 124.419L107.169 122.243C108.034 121.363 108.159 119.994 107.459 118.983L106.595 117.731C106.425 117.494 106.411 117.218 106.551 116.957C107.073 115.99 107.498 114.964 107.816 113.905C107.903 113.62 108.111 113.431 108.396 113.378L109.888 113.107C111.1 112.88 111.979 111.825 111.979 110.592V107.521C111.979 106.298 111.096 105.243 109.884 105.03ZM96.8584 36.519V93.1371C96.7956 93.1177 96.7377 93.0936 96.6749 93.0742H96.6652C96.3851 92.992 96.2064 92.7889 96.1533 92.489L95.8829 91.0091C95.6655 89.7904 94.6127 88.9053 93.3764 88.9053H92.5071V36.5191C92.5071 34.8892 91.1838 33.5641 89.5562 33.5641H74.1215V29.2114H89.5562C93.5841 29.2114 96.8584 32.4903 96.8584 36.519ZM76.226 99.1542L77.0856 100.392C77.2547 100.639 77.2692 100.919 77.1339 101.181C76.6075 102.158 76.1825 103.188 75.8735 104.232C75.7865 104.518 75.5789 104.706 75.2843 104.759L73.8016 105.025C72.5894 105.243 71.7056 106.297 71.7056 107.535V110.607C71.7056 111.187 71.894 111.724 72.2175 112.149L33.1225 112.154C32.4898 112.154 31.973 111.637 31.973 111.003V36.5193C31.973 35.8809 32.4898 35.3634 33.1225 35.3634H46.5197C46.6115 36.8966 47.8865 38.1153 49.4416 38.1153H71.1893C72.7444 38.1153 74.0194 36.8966 74.1112 35.3634H89.5558C90.1933 35.3634 90.7101 35.8809 90.7101 36.5193V88.9056H90.3092C89.0777 88.9056 88.0248 89.7858 87.7979 91.0045L87.5323 92.4893C87.4792 92.7843 87.2956 92.9874 87.0059 93.0745C85.9482 93.3936 84.9243 93.8241 83.9585 94.3464C83.7025 94.4866 83.4272 94.4673 83.1809 94.298L81.9397 93.4371C80.9304 92.7359 79.5636 92.8616 78.6798 93.7321L76.5114 95.9036C75.642 96.7742 75.5209 98.1434 76.226 99.1542ZM48.3064 28.0554C48.3064 27.4266 48.8135 26.9188 49.4414 26.9188H54.5365C55.034 26.9188 55.4348 26.5174 55.4348 26.0193C55.4348 23.3206 57.6226 21.1298 60.3127 21.1298C63.0076 21.1298 65.1953 23.3254 65.1953 26.0193C65.1953 26.5174 65.5962 26.9188 66.0936 26.9188H71.1888C71.8166 26.9188 72.3237 27.4266 72.3237 28.0554V35.1889C72.3237 35.8128 71.8166 36.3206 71.1888 36.3206L49.4411 36.3158C48.8133 36.3158 48.3062 35.8079 48.3062 35.1841L48.3064 28.0554ZM77.0853 117.744L76.6892 118.315H33.1223C29.0993 118.315 25.82 115.036 25.82 111.002V36.5187C25.82 32.49 29.0944 29.2062 33.1223 29.2062H46.5096V33.5589L33.1223 33.5637C31.4995 33.5637 30.1763 34.8888 30.1763 36.5187V111.002C30.1763 112.627 31.4995 113.953 33.1223 113.953H75.8831C76.1922 114.988 76.6124 116.003 77.1291 116.961C77.2692 117.227 77.2543 117.498 77.0853 117.744ZM110.183 110.606C110.183 110.973 109.927 111.283 109.565 111.346L108.077 111.617C107.121 111.791 106.382 112.453 106.097 113.392C105.812 114.335 105.43 115.249 104.967 116.114C104.503 116.98 104.566 117.976 105.121 118.77L105.981 120.012C106.189 120.317 106.155 120.714 105.894 120.975L103.726 123.146C103.465 123.408 103.074 123.441 102.769 123.238L101.519 122.363C100.712 121.812 99.722 121.758 98.8623 122.218C97.993 122.687 97.0802 123.064 96.1433 123.345C95.2064 123.63 94.5447 124.38 94.3805 125.332L94.1052 126.827C94.0424 127.189 93.7382 127.446 93.3711 127.446H90.3043C89.9373 127.446 89.633 127.189 89.5654 126.827L89.2949 125.337C89.1163 124.37 88.4546 123.63 87.5225 123.354C86.5807 123.069 85.6679 122.687 84.8035 122.223C84.422 122.019 84.0066 121.913 83.6009 121.913C83.0987 121.913 82.6012 122.068 82.1568 122.368L80.9157 123.229C80.6066 123.441 80.2202 123.407 79.9546 123.146L77.791 120.98C77.5253 120.709 77.4915 120.322 77.704 120.012L78.5685 118.765C79.1143 117.962 79.1722 116.97 78.7134 116.114C78.2449 115.244 77.8682 114.33 77.5881 113.392C77.3032 112.458 76.5594 111.796 75.5983 111.621L74.1157 111.355C73.7486 111.288 73.4975 110.988 73.4975 110.611V107.54C73.4975 107.172 73.7486 106.867 74.1108 106.804L75.5983 106.534C76.5594 106.36 77.2983 105.697 77.5833 104.754C77.8586 103.82 78.2401 102.906 78.7086 102.036C79.1674 101.18 79.1094 100.184 78.5589 99.376L77.6944 98.1282C77.4819 97.8284 77.5157 97.4318 77.7765 97.1755L79.9401 95.0088C80.2057 94.7428 80.6018 94.7089 80.906 94.9169L82.1472 95.7778C82.9537 96.3388 83.9438 96.3968 84.8034 95.9325C85.6631 95.4682 86.5807 95.0862 87.5128 94.8057C88.4497 94.53 89.1114 93.7852 89.29 92.8179L89.5557 91.3332C89.6233 90.9656 89.9275 90.7093 90.2994 90.7093H93.3662C93.7333 90.7093 94.0375 90.9608 94.1003 91.3332L94.3708 92.8131C94.535 93.7658 95.2159 94.5299 96.1384 94.8057C97.0801 95.091 97.9929 95.4731 98.8526 95.9373C99.7122 96.3968 100.707 96.3388 101.509 95.7826L102.755 94.9169C103.054 94.7089 103.445 94.7428 103.706 95.0088L105.875 97.1803C106.135 97.4414 106.174 97.8332 105.962 98.1379L105.107 99.3808C104.547 100.179 104.484 101.175 104.947 102.041C105.411 102.902 105.793 103.82 106.077 104.754C106.353 105.692 107.092 106.355 108.062 106.534L109.55 106.804C109.912 106.867 110.168 107.172 110.168 107.54L110.183 110.606ZM91.84 97.1465C85.2767 97.1465 79.9352 102.495 79.9352 109.073C79.9352 115.65 85.2767 120.999 91.84 120.999C98.4082 120.999 103.75 115.65 103.75 109.073C103.75 102.5 98.4082 97.1465 91.84 97.1465ZM99.5914 115.568L99.3644 115.341C99.0119 114.988 98.442 114.988 98.0943 115.341C97.7417 115.694 97.7417 116.265 98.0943 116.613L98.3213 116.84C96.7807 118.131 94.8537 118.973 92.7384 119.161V118.837C92.7384 118.339 92.3375 117.938 91.8401 117.938C91.3426 117.938 90.9418 118.339 90.9418 118.837V119.161C88.8313 118.973 86.8995 118.131 85.3637 116.84L85.5858 116.608C85.9336 116.255 85.9336 115.684 85.5762 115.336C85.2236 114.988 84.6537 114.988 84.3061 115.346L84.0887 115.568C82.7992 114.025 81.9637 112.096 81.7754 109.977H82.0893C82.5867 109.977 82.9876 109.576 82.9876 109.078C82.9876 108.58 82.5867 108.178 82.0893 108.178H81.7754C81.9637 106.06 82.7992 104.13 84.0887 102.588L84.3061 102.81C84.4799 102.989 84.7117 103.076 84.9436 103.076C85.1705 103.076 85.4024 102.989 85.5762 102.815C85.9288 102.467 85.9336 101.896 85.5859 101.543L85.3589 101.316C86.8995 100.024 88.8265 99.1828 90.937 98.9942V99.3134C90.937 99.8116 91.3379 100.213 91.8353 100.213C92.3327 100.213 92.7336 99.8116 92.7336 99.3134V98.9942C94.8489 99.1829 96.7759 100.024 98.3165 101.316L98.0895 101.543C97.737 101.896 97.737 102.467 98.0895 102.815C98.2634 102.989 98.4952 103.081 98.727 103.081C98.9588 103.081 99.1858 102.994 99.3645 102.815L99.5915 102.588C100.881 104.13 101.721 106.06 101.91 108.178H101.591C101.094 108.178 100.693 108.58 100.693 109.078C100.693 109.576 101.094 109.977 101.591 109.977H101.91C101.721 112.091 100.881 114.025 99.5914 115.568ZM95.3994 111.361C95.752 111.714 95.752 112.28 95.3994 112.632C95.2255 112.807 94.9937 112.898 94.7619 112.898C94.5301 112.898 94.3031 112.811 94.1292 112.637L91.2025 109.711C91.0335 109.542 90.9369 109.315 90.9369 109.073V102.737C90.9369 102.239 91.3377 101.838 91.8352 101.838C92.3326 101.838 92.7335 102.239 92.7335 102.737V108.696L95.3994 111.361ZM51.8225 79.1169C52.1509 79.4893 52.1171 80.06 51.7452 80.3888L43.6171 87.5707C43.4481 87.7206 43.2356 87.798 43.0231 87.798C42.7768 87.798 42.5305 87.6965 42.3566 87.4982L39.1112 83.8902C38.7779 83.5227 38.8069 82.952 39.1788 82.6183C39.5458 82.2846 40.1157 82.3137 40.4489 82.6861L43.1003 85.6314L50.562 79.0395C50.929 78.7106 51.4942 78.7445 51.8225 79.1169ZM56.8065 80.4808C56.8065 79.9826 57.2074 79.5812 57.7048 79.5812H80.8533C81.3507 79.5812 81.7516 79.9826 81.7516 80.4808C81.7516 80.9789 81.3507 81.3803 80.8533 81.3803H57.7048C57.2074 81.3803 56.8065 80.9741 56.8065 80.4808ZM76.0716 86.1296C76.0716 86.6277 75.6707 87.0291 75.1733 87.0291H57.7047C57.2073 87.0291 56.8064 86.6277 56.8064 86.1296C56.8064 85.6315 57.2073 85.23 57.7047 85.23H75.1733C75.6707 85.23 76.0716 85.6315 76.0716 86.1296ZM51.8277 95.4539C52.1561 95.8263 52.1223 96.397 51.7456 96.7258L43.6175 103.903C43.4485 104.053 43.236 104.13 43.0235 104.13C42.7772 104.13 42.5309 104.029 42.357 103.835L39.1115 100.232C38.7783 99.8646 38.8073 99.2939 39.1743 98.9602C39.5414 98.6265 40.1113 98.6555 40.4444 99.0231L43.0958 101.964L50.5575 95.3765C50.9294 95.0477 51.4994 95.0815 51.8277 95.4539ZM72.7593 96.8082C72.7593 97.3063 72.3585 97.7077 71.8611 97.7077L57.7059 97.7125C57.2085 97.7125 56.8076 97.3111 56.8076 96.813C56.8076 96.3149 57.2085 95.9134 57.7059 95.9134H71.8611C72.3537 95.9086 72.7593 96.3149 72.7593 96.8082ZM71.5809 102.462C71.5809 102.96 71.1801 103.361 70.6827 103.361H57.7058C57.2083 103.361 56.8075 102.96 56.8075 102.462C56.8075 101.964 57.2083 101.562 57.7058 101.562H70.6777C71.1751 101.562 71.5809 101.964 71.5809 102.462ZM39.1116 67.5587C38.7783 67.1911 38.8073 66.6204 39.1743 66.2868C39.5414 65.9531 40.1113 65.9821 40.4445 66.3496L43.0958 69.2901L50.5576 62.7031C50.9294 62.3742 51.4993 62.4081 51.8277 62.7853C52.1561 63.1577 52.1223 63.7284 51.7456 64.0572L43.6175 71.2343C43.4484 71.3842 43.2359 71.4616 43.0234 71.4616C42.7771 71.4616 42.5308 71.36 42.357 71.1666L39.1116 67.5587ZM56.8064 64.1491C56.8064 63.6509 57.2073 63.2495 57.7047 63.2495H80.8531C81.3506 63.2495 81.7514 63.6509 81.7514 64.1491C81.7514 64.6472 81.3506 65.0486 80.8531 65.0486H57.7047C57.2073 65.0486 56.8064 64.6424 56.8064 64.1491ZM56.8064 69.7979C56.8064 69.2997 57.2073 68.8983 57.7047 68.8983H75.1733C75.6707 68.8983 76.0716 69.2997 76.0716 69.7979C76.0716 70.296 75.6707 70.6974 75.1733 70.6974H57.7047C57.2073 70.6974 56.8064 70.296 56.8064 69.7979ZM39.1116 51.2264C38.7783 50.8589 38.8073 50.2882 39.1743 49.9545C39.5414 49.6208 40.1113 49.6499 40.4445 50.0174L43.0958 52.9579L50.5576 46.3709C50.9294 46.042 51.4993 46.0758 51.8277 46.4531C52.1561 46.8255 52.1223 47.3962 51.7456 47.725L43.6175 54.9021C43.4484 55.052 43.2359 55.1294 43.0234 55.1294C42.7771 55.1294 42.5308 55.0278 42.357 54.8344L39.1116 51.2264ZM56.8064 47.8169C56.8064 47.3187 57.2073 46.9173 57.7047 46.9173H80.8531C81.3506 46.9173 81.7514 47.3187 81.7514 47.8169C81.7514 48.315 81.3506 48.7164 80.8531 48.7164H57.7047C57.2073 48.7164 56.8064 48.315 56.8064 47.8169ZM56.8064 53.4657C56.8064 52.9675 57.2073 52.5661 57.7047 52.5661H75.1733C75.6707 52.5661 76.0716 52.9675 76.0716 53.4657C76.0716 53.9638 75.6707 54.3652 75.1733 54.3652H57.7047C57.2073 54.3652 56.8064 53.9638 56.8064 53.4657Z" fill="#8D1A14"/>
</g>
<defs>
<clipPath id="clip0_1_810">
<rect width="136" height="130" fill="white"/>
</clipPath>
</defs>
</svg>
