<svg width="140" height="146" viewBox="0 0 140 146" fill="none" xmlns="http://www.w3.org/2000/svg">
<g clip-path="url(#clip0_1_806)">
<path d="M90.8938 71.9512C90.9436 79.1786 96.7455 85.0434 103.879 85.0434C111.044 85.0434 116.87 79.1283 116.87 71.8556C116.87 71.8102 116.85 71.7698 116.845 71.7244C116.84 71.6739 116.85 71.6285 116.835 71.578C116.83 71.5528 116.811 71.5376 116.801 71.5124C116.791 71.4922 116.796 71.467 116.786 71.4417L105.142 44.2883C107.752 43.3092 108.493 41.8102 108.692 40.937C108.965 39.7409 108.553 38.5245 107.588 37.6868C106.475 36.7228 104.864 36.4957 103.387 37.1064C98.5003 39.1101 93.7723 37.4546 88.2941 35.5368C84.8089 34.3154 81.2095 33.0587 77.2223 32.6398C76.9738 32.337 76.6954 32.0645 76.3871 31.8222C76.402 30.3888 76.2181 28.2943 75.1243 27.1033C74.5924 26.5279 73.9013 26.21 73.1208 26.1948C72.2508 26.1797 71.4801 26.5027 70.8935 27.1386C69.6805 28.4559 69.576 30.7423 69.6307 32.0645C69.3573 32.3118 69.1137 32.5793 68.8949 32.872C65.0121 33.3162 61.4873 34.5426 58.0768 35.7388C52.603 37.6567 47.8751 39.3171 42.9835 37.3084C41.5069 36.7027 39.8961 36.9248 38.7825 37.8888C37.818 38.7215 37.4054 39.9378 37.6788 41.139C37.8776 42.0122 38.6184 43.5111 41.2335 44.4903L29.8087 71.6489C29.8038 71.664 29.8038 71.6792 29.7988 71.6943C29.7938 71.7095 29.7789 71.7195 29.7739 71.7347C29.759 71.7902 29.764 71.8457 29.7541 71.8962C29.7441 71.9467 29.7242 71.9971 29.7242 72.0476C29.7242 72.0779 29.7292 72.1031 29.7292 72.1334V72.1435C29.7789 79.3709 35.5808 85.2357 42.7148 85.2357C49.8789 85.2357 55.7056 79.3206 55.7056 72.0479C55.7056 72.0025 55.6857 71.9621 55.6807 71.9167C55.6757 71.8662 55.6857 71.8208 55.6708 71.7703C55.6658 71.7451 55.6459 71.7299 55.636 71.7047C55.626 71.6845 55.631 71.6593 55.621 71.634L44.2958 45.2274C45.1907 45.3586 46.0756 45.4293 46.9456 45.4293C51.0869 45.4293 54.9996 44.0817 59.0813 42.6787C62.3825 41.5431 65.7929 40.3722 69.4222 39.9382C69.5863 40.1047 69.7752 40.246 69.9592 40.3873C70.5955 68.8018 69.4073 76.8873 68.2589 84.7003C68.0899 85.8409 67.9209 87.0219 67.7568 88.2483H67.0558C63.9287 88.2483 61.3833 90.2571 61.3833 92.725V95.2233H60.4138C58.4898 95.2233 56.8641 96.5254 56.3421 98.3271C53.4735 98.2615 50.7888 98.7359 48.3279 99.3365C44.9024 100.174 41.1588 102.198 37.1965 104.343C32.8215 106.71 28.2973 109.158 23.9028 110.162C23.356 110.289 23.0179 110.839 23.1372 111.389C23.2615 111.944 23.7984 112.287 24.3453 112.166C29.0087 111.101 33.6571 108.588 38.1468 106.155C41.9947 104.076 45.624 102.107 48.8009 101.335C54.205 100.013 60.1411 99.3971 66.9029 103.763C70.1891 105.882 72.476 105.671 75.9413 105.348C76.861 105.262 77.9101 105.166 79.0983 105.095C85.0045 104.762 92.3423 105.348 93.7397 110.026C93.9137 110.612 93.7646 110.914 93.6155 111.116C92.1091 113.135 84.3534 112.999 81.803 112.953C81.0623 112.938 80.5303 112.933 80.2121 112.948C79.9536 112.964 79.6304 112.974 79.2526 112.984C76.9358 113.049 72.6305 113.165 67.6937 115.088C67.1717 115.29 66.9131 115.886 67.112 116.416C67.2661 116.824 67.6489 117.077 68.0566 117.077C68.1759 117.077 68.3002 117.057 68.4195 117.006C73.0332 115.209 77.1148 115.098 79.3073 115.038C79.7001 115.028 80.0382 115.018 80.3265 115.003C80.5751 114.987 81.1269 114.997 81.7732 115.008C82.9565 115.028 84.1298 115.033 85.2683 115.013C79.4763 119.187 74.6838 122.316 73.3116 123.027C67.7385 125.934 63.4778 124.99 58.5416 123.9C57.7561 123.729 56.9458 123.547 56.1156 123.381C44.5069 121.044 41.6128 121.478 32.3219 126.924C31.8397 127.206 31.6706 127.837 31.954 128.327C32.1429 128.655 32.481 128.841 32.829 128.841C32.998 128.841 33.1721 128.796 33.3311 128.705C42.1408 123.542 44.6514 123.168 55.7235 125.399C56.5388 125.561 57.3392 125.737 58.1148 125.909C63.2107 127.035 68.0233 128.094 74.2428 124.854C76.1668 123.85 82.5453 119.585 89.0536 114.785C91.9023 114.467 94.1893 113.771 95.2432 112.353C95.81 111.591 95.9691 110.667 95.7354 109.678C109.696 98.6097 110.432 95.1166 109.487 93.3155C109.035 92.4525 108.294 91.8922 107.344 91.6904C107.891 90.6406 108.195 89.4899 107.673 88.4905C107.23 87.6477 106.514 87.0925 105.604 86.8805C103.278 86.3405 99.559 88.0464 93.8963 92.2454C93.6428 92.4322 91.1222 94.3349 88.542 96.278C87.7962 95.6269 86.8417 95.2181 85.7827 95.2181H84.8132V92.7198C84.8132 90.2518 82.2678 88.2432 79.1407 88.2432H78.385C76.635 76.9379 76.3119 73.9856 76.4262 40.3164C76.6449 40.1398 76.8587 39.9531 77.0476 39.7461C80.6371 40.1953 84.0178 41.3461 87.2891 42.4766C91.3658 43.8796 95.2784 45.2272 99.4248 45.2272C100.3 45.2272 101.19 45.1565 102.09 45.0253L90.9731 71.441C90.9682 71.4561 90.9682 71.4713 90.9632 71.4864C90.9582 71.5016 90.9433 71.5116 90.9383 71.5268C90.9234 71.5823 90.9284 71.6378 90.9185 71.6883C90.9085 71.7388 90.8886 71.7892 90.8886 71.8397C90.8886 71.87 90.8936 71.8952 90.8936 71.9255V71.9356L90.8938 71.9512ZM104.779 48.5886L114.454 71.1488C111.213 71.8807 107.966 71.8453 104.779 71.0479V48.5886ZM102.756 71.1088C99.753 72.0475 96.5762 72.0778 93.2801 71.1895L102.756 48.6745V71.1133V71.1088ZM103.88 82.9894C98.2915 82.9894 93.6729 78.7247 92.9967 73.2386C94.6919 73.6777 96.3574 73.9048 97.9981 73.9048C99.9917 73.9048 101.941 73.5818 103.825 72.9307C107.429 73.9098 111.098 73.9855 114.767 73.178C114.121 78.6943 109.483 82.9894 103.88 82.9894ZM69.8544 36.0924C69.8544 34.2452 71.336 32.7411 73.1556 32.7411C74.9752 32.7411 76.4568 34.2452 76.4568 36.0924C76.4568 37.9397 74.9752 39.4437 73.1556 39.4437C71.336 39.4437 69.8544 37.9397 69.8544 36.0924ZM72.375 28.5472C72.5689 28.3403 72.7877 28.2444 73.086 28.2545C73.3246 28.2595 73.4936 28.3352 73.6527 28.5119C74.0206 28.9156 74.2593 29.7585 74.3388 30.8335C73.956 30.7477 73.5632 30.6872 73.1556 30.6872C72.6335 30.6872 72.1414 30.7881 71.6641 30.9294C71.7287 29.8494 71.9773 28.9763 72.37 28.5472L72.375 28.5472ZM41.6005 71.311C38.5976 72.2497 35.4208 72.28 32.1247 71.3917L41.6005 48.8767V71.3155V71.311ZM43.6239 48.7856L53.2986 71.3459C50.0571 72.0777 46.8107 72.0424 43.6239 71.2449V48.7856ZM42.724 83.1912C37.136 83.1912 32.5174 78.9265 31.8412 73.4404C33.5365 73.8795 35.202 74.1066 36.8426 74.1066C38.8362 74.1066 40.7852 73.7836 42.6693 73.1325C46.2737 74.1116 49.9427 74.1873 53.6118 73.3798C52.9655 78.8962 48.3271 83.1912 42.724 83.1912ZM58.4397 40.7414C53.1797 42.5533 48.2181 44.2643 42.864 42.8611C41.0593 42.3867 39.8612 41.5742 39.6574 40.6808C39.558 40.2367 39.717 39.7875 40.1048 39.4544C40.6517 38.98 41.4472 38.8891 42.2327 39.2122C47.8257 41.5085 53.1255 39.6462 58.7438 37.6779C61.687 36.6483 64.7196 35.5884 67.9363 35.0736C67.8767 35.4017 67.8369 35.7398 67.8369 36.0881C67.8369 36.7745 67.9761 37.4256 68.2098 38.0312C64.7546 38.5662 61.5528 39.6664 58.4455 40.7364L58.4397 40.7414ZM107.703 94.295C107.753 94.3909 108.732 96.7125 94.9262 107.726C93.9518 106.126 92.331 104.93 90.0938 104.137C90.1882 104.062 90.2728 103.991 90.3623 103.915C94.1755 100.786 101.633 94.6742 105.58 93.786C106.092 93.6699 106.55 93.6346 106.928 93.7103C107.295 93.786 107.524 93.9619 107.703 94.295ZM95.0901 93.9165C101.334 89.2884 104.009 88.6323 105.153 88.8947C105.496 88.9755 105.719 89.1521 105.888 89.4701C105.993 89.6669 105.878 90.4189 104.839 91.8725C100.971 92.9223 95.5027 97.0912 90.0388 101.548V99.549C90.0388 98.9837 89.9245 98.4437 89.7306 97.9491C92.6539 95.7436 94.8712 94.078 95.0899 93.9114L95.0901 93.9165ZM88.0155 99.549V102.92C88.0155 103.031 87.9857 103.132 87.9708 103.243C87.8664 103.329 87.7719 103.405 87.6725 103.486C85.2812 103.011 82.3977 102.865 79.0021 103.057C77.7741 103.127 76.7101 103.223 75.7754 103.314C72.3998 103.627 70.7093 103.788 68.0048 102.042C64.6639 99.8821 61.4721 98.8525 58.4643 98.4891C58.8422 97.7725 59.5779 97.2829 60.4281 97.2829H85.7834C87.0164 97.2829 88.0155 98.3024 88.0155 99.549ZM82.7904 92.7255V95.2238H63.4207V92.7255C63.4207 91.4133 65.0912 90.3029 67.0699 90.3029H79.136C81.1147 90.3029 82.7851 91.4133 82.7851 92.7255H82.7904ZM76.3373 88.2539H69.8096C69.9587 87.1435 70.1178 86.0584 70.2719 85.0137C71.4204 77.211 72.6036 69.1359 72.017 41.3675C72.3849 41.4482 72.7677 41.4987 73.1604 41.4987C73.588 41.4987 74.0006 41.4331 74.4033 41.3321C74.2989 73.0025 74.6072 76.9949 76.3372 88.2485L76.3373 88.2539ZM87.941 40.5442C84.8337 39.4742 81.6321 38.3739 78.1767 37.8389C78.3607 37.2888 78.485 36.7084 78.485 36.0976C78.485 35.6686 78.4253 35.2598 78.3309 34.8611C81.5922 35.3709 84.6598 36.4409 87.6377 37.4855C93.2507 39.4538 98.5553 41.3111 104.149 39.0198C104.934 38.6968 105.73 38.7876 106.277 39.2621C106.659 39.5951 106.824 40.0393 106.724 40.4885C106.52 41.3818 105.322 42.1994 103.517 42.6688C98.1631 44.0718 93.1964 42.3609 87.9418 40.5491L87.941 40.5442Z" fill="#8D1A14"/>
</g>
<defs>
<clipPath id="clip0_1_806">
<rect width="140" height="146" fill="white"/>
</clipPath>
</defs>
</svg>
