<svg width="69" height="69" viewBox="0 0 69 69" fill="none" xmlns="http://www.w3.org/2000/svg">
<g clip-path="url(#clip0_607_6)">
<path d="M29.0195 6.79898C29.427 5.10158 30.749 3.86623 32.4689 3.57101C34.1823 3.27902 35.8477 4.00418 36.7942 5.46736L42.4062 14.1408L54.6315 1.91551C55.7192 0.827767 57.1503 0.282254 58.5782 0.282254C60.0061 0.282254 61.4372 0.827736 62.525 1.9155L67.0845 6.47509C69.26 8.65056 69.26 12.1898 67.0845 14.3653L54.8592 26.5906L63.5327 32.2026C64.9991 33.1492 65.7243 34.8081 65.429 36.528C65.1338 38.2478 63.8985 39.5698 62.2011 39.9773L25.346 48.8241C23.8861 49.1738 22.3747 48.7503 21.3094 47.685C20.2441 46.6197 19.8174 45.1116 20.1704 43.6484L29.0171 6.7934L29.0195 6.79898ZM23.7316 45.2681C23.8343 45.374 24.1166 45.6018 24.5466 45.4991L61.4016 36.6524C61.9022 36.5304 62.0241 36.1229 62.053 35.9529C62.0819 35.7828 62.1011 35.356 61.668 35.0769L51.2169 28.3161C50.7837 28.037 50.5014 27.5749 50.4436 27.0616C50.3891 26.5482 50.5688 26.038 50.9378 25.6722L64.6614 11.9486C65.502 11.1079 65.502 9.73779 64.6614 8.89714L60.1018 4.33756C59.2611 3.49691 57.891 3.49691 57.0503 4.33756L43.3267 18.0612C43.0059 18.382 42.5695 18.5617 42.117 18.5617C42.056 18.5617 41.9983 18.5585 41.9373 18.5521C41.4239 18.4976 40.9619 18.212 40.6828 17.7788L33.922 7.32777C33.6428 6.89459 33.2161 6.91384 33.046 6.94272C32.876 6.9716 32.4685 7.09353 32.3465 7.59409L23.4997 44.4491C23.3971 44.8759 23.6249 45.1615 23.7308 45.2641L23.7316 45.2681Z" fill="black"/>
<path d="M28.0476 55.8251C28.991 55.8251 29.7578 56.592 29.7578 57.5353L29.7578 67.0138C29.7578 67.9571 28.991 68.724 28.0476 68.724C27.1043 68.724 26.3374 67.9571 26.3374 67.0138L26.3374 57.5353C26.3374 56.592 27.1043 55.8251 28.0476 55.8251Z" fill="#8D1A14"/>
<path d="M15.1102 51.4707C15.4439 51.137 15.8835 50.9702 16.3199 50.9702C16.7595 50.9702 17.1959 51.137 17.5296 51.4707C18.2003 52.1413 18.2003 53.2227 17.5296 53.8901L10.8266 60.5931C10.156 61.2637 9.07468 61.2637 8.40727 60.5931C7.73665 59.9225 7.73665 58.8411 8.40727 58.1737L15.1102 51.4707Z" fill="#8D1A14"/>
<path d="M1.9861 39.2396L11.4646 39.2396C12.4079 39.2396 13.1748 40.0065 13.1748 40.9499C13.1748 41.8932 12.4079 42.6601 11.4646 42.6601L1.9861 42.6601C1.04277 42.6601 0.275885 41.8932 0.275885 40.9499C0.275885 40.0065 1.04276 39.2396 1.9861 39.2396Z" fill="#8D1A14"/>
<path d="M15.1103 30.4315L8.40727 23.7284C7.73665 23.0578 7.73665 21.9765 8.40727 21.3091C8.74097 20.9754 9.18057 20.8085 9.61699 20.8085C10.0566 20.8085 10.493 20.9754 10.8267 21.3091L17.5297 28.0121C18.2004 28.6827 18.2004 29.764 17.5297 30.4315C16.8591 31.1021 15.7777 31.1021 15.1103 30.4315Z" fill="#8D1A14"/>
<path d="M39.7751 50.9672C40.2147 50.9672 40.6511 51.134 40.9848 51.4677L47.6878 58.1708C48.3585 58.8414 48.3585 59.9227 47.6878 60.5901C47.0172 61.2607 45.9359 61.2607 45.2685 60.5901L38.5655 53.8871C37.8948 53.2165 37.8948 52.1351 38.5655 51.4677C38.8992 51.134 39.3387 50.9672 39.7751 50.9672Z" fill="#8D1A14"/>
</g>
<defs>
<clipPath id="clip0_607_6">
<rect width="69" height="69" fill="white" transform="matrix(1 -8.74228e-08 -8.74228e-08 -1 6.03217e-06 69)"/>
</clipPath>
</defs>
</svg>
