<svg width="116" height="116" viewBox="0 0 116 116" fill="none" xmlns="http://www.w3.org/2000/svg">
<circle cx="57.9822" cy="57.9822" r="57.9822" fill="#8D1A14"/>
<path d="M86.9249 27.9775H52.0119C46.5207 27.9775 42.0533 32.4162 42.0533 37.8719V38.0919H31.6747C26.1843 38.0919 21.7168 42.5306 21.7168 47.9872V68.3158C21.7168 73.7708 26.1835 78.2094 31.6747 78.2094H34.6756V91.1081C34.6756 91.7648 35.0735 92.3566 35.6846 92.6082C35.8864 92.6919 36.0988 92.7316 36.3096 92.7316C36.7353 92.7316 37.1528 92.5668 37.4657 92.256L51.6034 78.2094H66.5909C69.3924 78.2094 72.0453 76.9942 73.9179 74.9689L81.1379 82.1415C81.45 82.4524 81.8684 82.6172 82.294 82.6172C82.5048 82.6172 82.7172 82.5766 82.919 82.4938C83.5294 82.2422 83.9272 81.6504 83.9272 80.9937V68.095H86.9265C92.4169 68.095 96.8836 63.6572 96.8836 58.2022V37.8727C96.8828 32.4162 92.4153 27.9775 86.9249 27.9775ZM66.5901 74.9616H50.9253C50.4923 74.9616 50.0764 75.1329 49.77 75.4373L37.9437 87.1874V76.5851C37.9437 75.6889 37.2116 74.9616 36.3096 74.9616H31.6747C27.9858 74.9616 24.9849 71.98 24.9849 68.3158V47.9872C24.9849 44.3213 27.9858 41.3397 31.6747 41.3397H42.0533V58.2014C42.0533 63.6564 46.5207 68.0942 52.0119 68.0942H66.9969L71.6074 72.6749C70.3443 74.102 68.5182 74.9616 66.5901 74.9616ZM93.6147 58.2014C93.6147 61.8656 90.6138 64.8472 86.9257 64.8472H82.2924C81.3904 64.8472 80.6583 65.5745 80.6583 66.4707V77.0738L74.8771 71.3306C74.8673 71.3217 74.8591 71.312 74.8493 71.3031L68.8303 65.3229C68.5239 65.0185 68.1081 64.8472 67.6751 64.8472H52.0119C48.3223 64.8472 45.3214 61.8656 45.3214 58.2014V37.8727C45.3214 34.2069 48.3231 31.2253 52.0119 31.2253H86.9249C90.6129 31.2253 93.6139 34.2077 93.6139 37.8727L93.6147 58.2014Z" fill="white"/>
</svg>
