<svg width="85" height="85" viewBox="0 0 85 85" fill="none" xmlns="http://www.w3.org/2000/svg">
<circle cx="42.1688" cy="42.1688" r="42.1688" fill="#8D1A14"/>
<path d="M23.8004 63.4818H49.057C51.5907 63.4818 53.6485 61.4383 53.6485 58.9272V27.0388C53.6485 24.6131 51.737 22.6188 49.24 22.4949H49.2313C49.0355 19.8963 47.5243 17.9276 45.6107 17.9276C43.6948 17.9276 42.1902 19.8899 41.99 22.4821H40.0462C39.8481 19.8899 38.3391 17.9276 36.4255 17.9276C34.5118 17.9276 33.005 19.8899 32.8048 22.4821H30.861C30.6629 19.8899 29.1539 17.9276 27.2403 17.9276C25.3266 17.9276 23.8133 19.9006 23.6196 22.5013C21.1699 22.5953 19.2046 24.5875 19.2046 27.0388V58.925C19.2046 61.4383 21.2647 63.4796 23.7961 63.4796L23.8004 63.4818ZM49.057 61.2034H23.8004C22.5346 61.2034 21.5035 60.1827 21.5035 58.925V32.7315H51.3539V58.925C51.3539 60.1806 50.3249 61.2034 49.057 61.2034ZM23.8004 24.7605H26.0972C26.7322 24.7605 27.2445 24.2501 27.2445 23.6224C27.2445 22.9946 26.7322 22.4843 26.0972 22.4843H25.9164C26.0714 21.0963 26.7667 20.2059 27.2467 20.2059C27.7892 20.2059 28.6115 21.3419 28.6115 23.0522C28.6115 24.7647 27.7914 25.8986 27.2467 25.8986C26.6117 25.8986 26.0994 26.4089 26.0994 27.0366C26.0994 27.6644 26.6117 28.1747 27.2467 28.1747C28.8677 28.1747 30.1958 26.7633 30.6888 24.7583H30.6909H35.2824C35.9174 24.7583 36.4298 24.2479 36.4298 23.6202C36.4298 22.9924 35.9174 22.4821 35.2824 22.4821H35.1016C35.2566 21.0941 35.9519 20.2037 36.432 20.2037C36.9744 20.2037 37.7967 21.3397 37.7967 23.05C37.7967 24.7625 36.9766 25.8964 36.432 25.8964C35.797 25.8964 35.2846 26.4067 35.2846 27.0345C35.2846 27.6622 35.797 28.1725 36.432 28.1725C38.0529 28.1725 39.3811 26.7611 39.874 24.7561H39.8762H44.4677C45.1027 24.7561 45.615 24.2458 45.615 23.618C45.615 22.9902 45.1027 22.4799 44.4677 22.4799H44.2869C44.4418 21.092 45.1372 20.2015 45.6172 20.2015C46.1597 20.2015 46.982 21.3375 46.982 23.0479C46.982 24.7604 46.1618 25.8942 45.6172 25.8942C44.9822 25.8942 44.4699 26.4045 44.4699 27.0323C44.4699 27.66 44.9822 28.1704 45.6172 28.1704C47.2338 28.1704 48.562 26.7632 49.0571 24.7646H49.0614H49.1862C50.4046 24.8244 51.3582 25.8194 51.3582 27.0301V30.4465L21.5035 30.4529V27.0365C21.5035 25.7809 22.5324 24.7581 23.8003 24.7581L23.8004 24.7605Z" fill="white"/>
<path d="M46.7602 37.2882H26.0951C25.4601 37.2882 24.9478 37.7985 24.9478 38.4263C24.9478 39.0541 25.4601 39.5644 26.0951 39.5644H46.7602C47.3952 39.5644 47.9075 39.0541 47.9075 38.4263C47.9075 37.7985 47.3952 37.2882 46.7602 37.2882Z" fill="white"/>
<path d="M46.7602 42.983H26.0951C25.4601 42.983 24.9478 43.4934 24.9478 44.1211C24.9478 44.7489 25.4601 45.2592 26.0951 45.2592H46.7602C47.3952 45.2592 47.9075 44.7489 47.9075 44.1211C47.9075 43.4934 47.3952 42.983 46.7602 42.983Z" fill="white"/>
<path d="M46.7602 48.6757H26.0951C25.4601 48.6757 24.9478 49.186 24.9478 49.8137C24.9478 50.4415 25.4601 50.9518 26.0951 50.9518H46.7602C47.3952 50.9518 47.9075 50.4415 47.9075 49.8137C47.9075 49.186 47.3952 48.6757 46.7602 48.6757Z" fill="white"/>
<path d="M41.0216 54.3705H26.0975C25.4625 54.3705 24.9502 54.8808 24.9502 55.5086C24.9502 56.1363 25.4625 56.6467 26.0975 56.6467H41.0216C41.6566 56.6467 42.1689 56.1363 42.1689 55.5086C42.1689 54.8808 41.6566 54.3705 41.0216 54.3705Z" fill="white"/>
<path d="M65.1177 27.5898C65.1177 25.8602 63.6992 24.4552 61.9577 24.4552H59.9472C58.2035 24.4552 56.7871 25.8623 56.7871 27.5898V58.6561C56.7871 58.6731 56.7957 58.6902 56.7957 58.7073C56.7979 58.75 56.8086 58.7906 56.8172 58.8333C56.8323 58.9294 56.8581 59.0233 56.8969 59.113C56.9077 59.1365 56.9055 59.16 56.9163 59.1814C56.927 59.2048 56.9486 59.2177 56.9636 59.239C56.983 59.271 56.9938 59.3095 57.0174 59.3394L60.0354 63.3324C60.2507 63.6185 60.5929 63.7872 60.9546 63.7872C61.3163 63.7872 61.6563 63.6185 61.8738 63.3324L64.8918 59.3394C64.9069 59.318 64.9155 59.2902 64.9305 59.2668C64.9499 59.2369 64.9757 59.2134 64.993 59.1792C65.0037 59.1579 65.0037 59.1322 65.0123 59.1109C65.0532 59.0212 65.0769 58.9294 65.092 58.8312C65.0984 58.7885 65.1114 58.7479 65.1135 58.7052C65.1135 58.6881 65.1221 58.671 65.1221 58.6539L65.1157 27.5899L65.1177 27.5898ZM59.0819 56.9927V31.7218H62.8231V56.9927C61.5789 56.6574 60.3283 56.6574 59.0819 56.9927ZM59.9451 26.7316H61.9556C62.4313 26.7316 62.8209 27.1159 62.8209 27.59V29.4455H59.0797V27.59C59.0797 27.1181 59.4672 26.7316 59.9451 26.7316ZM60.9503 60.7508L59.7556 59.1728C60.5542 58.9721 61.3464 58.9721 62.1428 59.1728L60.9481 60.7508H60.9503Z" fill="white"/>
</svg>
