<svg width="85" height="85" viewBox="0 0 85 85" fill="none" xmlns="http://www.w3.org/2000/svg">
<circle cx="42.1688" cy="42.1688" r="42.1688" fill="#8D1A14"/>
<path d="M36.7945 25.6537C38.5753 27.4376 38.5753 30.6088 36.7945 32.3926L33.6287 35.5639C36.003 40.7171 40.9497 45.474 45.8963 48.0506L49.0621 44.6812C51.0407 42.8973 54.0087 42.8973 55.7895 44.6812L60.9339 49.8344C62.7147 51.6182 62.7147 54.5913 60.9339 56.5733L55.7895 61.5283C46.0941 71.4384 10.2807 35.3657 19.976 25.6537L25.1205 20.6987C26.9013 18.7167 29.8693 18.7167 31.8479 20.6987L36.7945 25.6537ZM44.3133 20.6987C42.7304 20.3023 43.324 17.7257 45.1048 18.1221C54.0087 20.5005 60.9339 27.4376 63.3083 36.3567C63.704 38.1405 61.3297 38.7351 60.7361 37.1495C58.7574 29.2214 52.4258 22.8789 44.3133 20.6987ZM42.7304 26.843C41.1475 26.4466 41.7411 23.8699 43.5219 24.2663C50.2493 26.0502 55.3937 31.4016 57.1745 38.1405C57.7681 39.7261 55.1959 40.5189 54.6023 38.7351C53.2172 32.9872 48.6664 28.4286 42.7304 26.843ZM35.0137 27.4376L29.8693 22.4825C29.0778 21.6897 27.6927 21.6897 26.9013 22.4825L21.9547 27.4376C14.6337 34.771 46.6877 66.8798 54.0087 59.5463L58.9553 54.5913C59.7468 53.7985 59.9446 52.411 59.1532 51.6182L54.0087 46.6632C53.2172 45.6722 51.8322 45.6722 51.0407 46.6632L47.0834 50.429C46.6877 50.8254 46.0941 51.0236 45.6984 50.8254C39.5646 48.0506 33.6287 42.1045 30.8586 35.9603C30.4628 35.5639 30.6607 34.771 31.0564 34.3746L35.0137 30.6088C35.8052 29.6178 35.8052 28.2304 35.0137 27.4376Z" fill="white"/>
</svg>
