<svg width="69" height="91" viewBox="0 0 69 91" fill="none" xmlns="http://www.w3.org/2000/svg">
<path d="M12.6829 28.5318C12.7907 30.7225 12.8961 32.987 13.9816 35.8387C16.5029 42.4636 20.9499 48.1749 24.2557 51.8136C27.5243 55.2182 32.6918 59.829 38.7833 62.4909C41.4565 63.6574 43.5516 63.7706 45.5754 63.8865L46.1782 63.9207C46.335 63.9286 46.4992 63.9339 46.656 63.9339C48.9078 63.9339 51.0714 62.9754 52.6641 61.2639L55.085 58.6624C55.9058 57.7803 56.3591 56.6059 56.3591 55.3526C56.3591 54.0992 55.9082 52.9248 55.085 52.0427L48.5111 44.9784C47.6903 44.0963 46.5975 43.6093 45.4311 43.6093C44.2648 43.6093 43.1719 44.0937 42.3511 44.9784L39.4794 48.0644C36.7571 46.9243 34.248 45.1732 32.1848 42.9615C30.1094 40.7365 28.4653 38.027 27.4043 35.0883L30.276 32.0023C31.9765 30.175 31.9765 27.21 30.276 25.3827L23.7022 18.3184C22.8813 17.4363 21.7885 16.9492 20.6222 16.9492C19.4558 16.9492 18.363 17.4337 17.5421 18.3184L15.1212 20.9199C13.4158 22.7526 12.5116 25.2935 12.6489 27.8898L12.6807 28.5297L12.6829 28.5318ZM16.8925 22.8311L19.3134 20.2296C19.6638 19.8531 20.122 19.6503 20.6169 19.6503C21.1119 19.6503 21.5701 19.8583 21.9204 20.2296L28.4943 27.2939C29.2146 28.068 29.2146 29.324 28.4943 30.0982L24.4978 34.3928L24.7551 35.188C25.9215 38.8137 27.8719 42.166 30.4006 44.8751C32.917 47.5714 36.0215 49.6541 39.3762 50.9075L40.1162 51.184L44.1126 46.8894C44.8085 46.1416 46.0263 46.1416 46.7222 46.8894L53.296 53.9537C53.6464 54.3302 53.8351 54.8226 53.8351 55.3545C53.8351 55.8864 53.6415 56.3787 53.296 56.7553L50.8751 59.3568C49.6696 60.6523 48.0034 61.3264 46.3029 61.2236L45.6879 61.1894C43.7865 61.0815 41.9929 60.9867 39.7092 59.9888C33.9951 57.4873 29.0895 53.1058 26.0096 49.8985C22.8805 46.4544 18.6517 41.0405 16.2868 34.8134C15.3655 32.3804 15.27 30.4398 15.1695 28.3834L15.1377 27.7304C15.0446 25.8977 15.6768 24.1046 16.8749 22.817L16.8925 22.8311Z" fill="#8D1A14"/>
</svg>
