<svg width="212" height="151" viewBox="0 0 212 151" fill="none" xmlns="http://www.w3.org/2000/svg">
<g clip-path="url(#clip0_624_305)">
<path d="M180.437 82.5575L159.723 36.4304C159.265 35.4107 158.454 34.6459 157.396 34.2635C156.359 33.8811 155.226 33.9186 154.227 34.3985L140.923 40.5994C139.925 41.0567 139.174 41.889 138.791 42.9237C138.483 43.8084 138.483 44.7307 138.769 45.6079C136.636 46.2227 133.678 46.5301 131.966 46.0877C131.636 45.9903 130.375 45.4354 129.279 44.9556C123.708 42.4811 117.942 40.0818 114.113 40.2319C112.018 40.3069 109.285 40.9592 105.636 42.2639C102.558 40.3669 97.7154 38.5598 95.1026 38.5224C90.1023 38.4474 82.0538 42.4213 76.6933 45.0682C75.6347 45.5856 74.4861 46.1629 73.6977 46.5078L73.9079 46.088C74.3884 45.0907 74.4259 43.9734 74.058 42.9388C73.6901 41.9041 72.9244 41.0793 71.9258 40.6145L58.6217 34.4136C57.6232 33.9563 56.4895 33.8963 55.4535 34.2787C54.4174 34.6611 53.5915 35.4334 53.1261 36.4456L32.426 82.5574C31.5025 84.5893 32.4035 87.0111 34.4457 87.9484L46.7887 93.647C47.3442 93.8944 47.9223 94.0294 48.5004 94.0294C50.0396 94.0294 51.5186 93.1671 52.2318 91.6899L52.9601 90.1378C57.5324 95.244 62.4351 98.2582 65.183 99.6754C63.6289 102.405 62.7053 106.394 66.0464 109.603C68.2763 111.755 71.3319 111.657 73.5619 111.177C73.637 113.292 74.2901 115.976 76.7753 117.648C78.412 118.743 80.2514 118.803 81.7155 118.585C82.0008 120.22 82.8116 121.982 84.621 123.114C86.7757 124.479 89.2534 124.456 90.9275 124.224C91.5581 125.454 92.7144 127.028 94.8315 128.04C95.9877 128.595 97.0989 128.828 98.1575 128.828C101.251 128.828 103.788 126.848 105.29 125.371C106.769 126.481 109.194 127.695 112.843 127.711C116.094 127.673 117.933 125.731 118.842 123.812C120.786 124.599 123.609 125.274 125.877 123.947C128.069 122.657 129.45 120.168 130.164 118.496C131.853 118.631 134.488 118.383 137.086 116.464C139.511 114.679 140.374 112.317 140.645 110.555C142.739 110.75 145.818 110.458 148.393 107.946C151.621 104.797 150.007 99.8481 148.836 97.2764C150.856 95.8967 154.407 93.3025 156.179 91.0605C157.042 89.9508 158.161 89.0811 159.137 88.4511L160.691 91.7352C161.382 93.2123 162.883 94.0747 164.422 94.0747C165 94.0747 165.578 93.9622 166.134 93.6923L178.477 87.9937C180.459 87.0115 181.36 84.5895 180.437 82.5575ZM48.7399 90.0404C48.6798 90.1754 48.5297 90.2354 48.3945 90.1754L36.0515 84.4768C35.9164 84.4169 35.8563 84.2669 35.9164 84.1319L56.653 38.0048C56.6906 37.9298 56.7281 37.8923 56.8032 37.8698C56.8407 37.8474 56.8633 37.8474 56.9008 37.8474C56.9383 37.8474 56.9759 37.8474 57.0134 37.8698L70.3174 44.0707C70.3775 44.1082 70.43 44.1457 70.4526 44.2207C70.4751 44.2582 70.4751 44.3332 70.43 44.4156L48.7399 90.0404ZM74.5891 106.873C73.6281 107.256 70.3245 108.448 68.688 106.851C66.0377 104.302 69.0183 100.747 69.4538 100.245C71.586 98.1306 78.2155 92.9121 81.3537 95.5963C82.2397 96.3611 82.6977 97.1109 82.7352 97.8832C82.7952 99.1129 81.8493 100.725 79.8522 102.817C78.2605 104.496 75.858 106.086 74.5891 106.873ZM82.7052 114.364C82.1271 114.611 80.0924 115.264 78.9363 114.476C77.2246 113.322 77.3221 110.787 77.4723 109.58C78.9739 108.598 81.0836 107.106 82.6602 105.471C83.6212 104.474 84.6574 103.282 85.4306 101.962C86.4892 101.73 88.6215 101.557 90.138 103.612C91.4068 105.299 91.0014 106.603 88.2385 109.887C86.294 112.197 83.1256 114.131 82.7052 114.364ZM91.1967 120.295C90.1606 120.542 88.0809 120.797 86.6769 119.89C85.6558 119.237 85.4681 117.993 85.4456 117.16C86.7895 116.298 89.3648 114.491 91.1742 112.339C92.4205 110.862 94.0347 108.943 94.5152 106.693C95.6114 106.828 96.8803 107.196 97.6685 107.998C99.553 109.955 99.7631 110.952 97.5934 113.831C95.9041 116.126 92.2778 119.372 91.1967 120.295ZM105.034 118.967C104.996 119.215 104.936 119.447 104.884 119.68L103.555 121.524C103.517 121.584 100.041 126.323 96.4822 124.613C95.3485 124.074 94.7328 123.249 94.41 122.619C95.9867 121.217 99.0425 118.398 100.694 116.186C100.889 115.938 101.024 115.683 101.197 115.458C101.392 115.398 103.194 114.843 104.365 116.268C104.921 116.95 105.169 117.955 105.034 118.967ZM145.667 105.171C143.475 107.323 140.577 106.723 139.706 106.498C133.016 101.145 121.657 88.3382 117.933 84.0576C117.242 83.2703 116.049 83.1953 115.245 83.8627C114.434 84.5525 114.344 85.7821 115.035 86.592C118.782 90.8884 129.856 103.387 136.906 109.169C136.883 110.166 136.575 112.048 134.773 113.39C132.566 115.025 130.389 114.732 129.721 114.597C122.859 110.031 113.346 97.5695 110.155 93.2355C109.539 92.3882 108.368 92.2158 107.504 92.8156C106.618 93.4305 106.431 94.6376 107.061 95.4998C110.23 99.7962 119.284 111.681 126.589 117.071C126.033 118.316 125.11 119.95 123.916 120.64C122.805 121.292 120.342 120.43 118.878 119.583C117.61 118.143 110.117 109.618 103.442 100.56C102.812 99.7131 101.633 99.5257 100.77 100.141C99.9062 100.755 99.711 101.963 100.327 102.825C106.551 111.29 113.473 119.275 115.553 121.637C115.282 122.537 114.569 123.842 112.767 123.887C110.342 123.924 108.728 123.159 107.767 122.485C108.308 121.6 108.705 120.588 108.841 119.47C109.111 117.401 108.555 115.347 107.324 113.847C106.018 112.272 104.381 111.657 102.902 111.523C103.232 109.393 102.421 107.451 100.439 105.397C98.5548 103.44 95.882 102.96 94.0951 102.847C93.8624 102.368 93.5921 101.865 93.2092 101.348C91.3097 98.7986 88.7495 98.0262 86.5798 98.0262C86.5798 97.9287 86.6023 97.8312 86.6023 97.7187C86.5047 95.8742 85.6037 94.1873 83.8919 92.71C78.4712 88.0463 70.4977 94.2246 67.7273 96.6615C65.3999 95.5293 59.7088 92.3427 54.7762 86.3517L71.669 50.8413H71.6915C72.3672 50.8413 73.1105 50.7663 73.8838 50.5564C74.6721 50.3464 75.9184 49.7316 78.441 48.5019C83.1709 46.1776 91.0843 42.3235 95.0861 42.3387C96.3775 42.3612 98.7575 43.126 100.927 44.0857C100.409 44.2957 99.9062 44.5056 99.3507 44.738C97.0081 45.7353 94.5681 46.6949 92.3908 47.5574C88.0063 49.3044 86.4145 49.9567 85.7013 50.4965C83.2388 52.356 71.3236 67.6369 73.7261 71.415C74.8373 73.162 78.0132 74.5641 81.6095 74.909C85.6488 75.2915 93.5621 74.6241 101.752 66.0764C106.272 64.3518 111.67 63.482 113.9 63.1747C115.972 65.8065 122.301 73.7917 126.836 78.8004C129.141 81.3347 132.234 84.5364 135.237 87.6331C139.104 91.622 143.076 95.7159 144.885 97.9578C145.688 99.4649 147.401 103.477 145.667 105.171ZM81.5351 61.6161C83.0892 62.4409 84.4933 63.5131 84.7635 64.3003C83.1118 66.9321 80.8068 68.4092 77.3232 69.099C77.8638 67.5095 79.5681 64.5552 81.5351 61.6161ZM153.107 88.6617C151.741 90.4087 148.648 92.7106 146.613 94.0901C144.518 91.7132 141.327 88.4292 137.986 84.9726C137.138 84.0878 136.274 83.2031 135.434 82.3408C136.627 81.9359 138.031 81.3811 138.82 80.9762C139.706 80.5188 140.607 79.9564 141.507 79.2891C142.431 78.5993 142.528 77.2571 141.74 76.4323C141.064 75.72 139.968 75.645 139.203 76.2224C136.567 78.2169 133.819 78.8916 132.34 79.1241C131.379 78.1043 130.456 77.1295 129.668 76.2673C124.382 70.4338 116.311 60.1016 116.236 59.9891C116.236 59.9891 115.816 59.4343 115.545 59.3143C115.2 59.1643 114.524 59.2543 114.524 59.2543C114.194 59.2918 106.814 60.0791 100.552 62.4635C100.342 62.5385 99.8238 62.6735 99.5535 62.8684C99.2832 63.0408 98.9003 63.5582 98.7276 63.7307C92.2858 70.299 86.272 71.2737 82.9686 71.1762C84.8907 70.1189 86.7527 68.5444 88.2542 66.0475C88.3142 65.95 88.5395 65.5676 88.6221 65.3202C88.6972 65.0727 88.6972 64.5929 88.6972 64.3979C88.5845 61.6536 85.9118 59.6366 83.7945 58.4896C85.4312 56.2626 87.0079 54.4032 88.0214 53.631C88.5394 53.286 91.3474 52.1688 93.8249 51.1942C96.0172 50.3319 98.4948 49.3347 100.86 48.3374C107.392 45.5557 111.679 44.2136 114.314 44.1161C117.64 43.9811 124.209 46.9354 127.768 48.51C129.578 49.3198 130.479 49.7021 131.056 49.8521C133.692 50.5419 137.648 50.0621 140.434 49.1623L157.462 84.9434C156.065 85.7457 154.414 86.9896 153.107 88.6617ZM176.802 84.4778L164.459 90.1763C164.324 90.2363 164.173 90.1763 164.113 90.0414L142.423 44.4383C142.386 44.3633 142.401 44.2883 142.423 44.2283C142.446 44.1683 142.484 44.1158 142.559 44.0783L155.863 37.8775C155.9 37.855 155.938 37.855 155.975 37.855C156.013 37.855 156.05 37.855 156.073 37.8775C156.11 37.8999 156.185 37.9374 156.223 38.0124L176.96 84.1395C176.997 84.2445 176.937 84.4178 176.802 84.4778Z" fill="black"/>
<path d="M104.773 17.7904H106.657C107.198 17.7904 107.641 17.3481 107.641 16.8082V1.14484C107.641 0.604982 107.198 0.162598 106.657 0.162598H104.773C104.232 0.162598 103.789 0.604982 103.789 1.14484V16.8082C103.789 17.3556 104.232 17.7904 104.773 17.7904Z" fill="black"/>
<path d="M106.649 137.459H104.765C104.224 137.459 103.781 137.901 103.781 138.441V154.104C103.781 154.644 104.224 155.087 104.765 155.087H106.649C107.19 155.087 107.633 154.644 107.633 154.104V138.441C107.633 137.894 107.19 137.459 106.649 137.459Z" fill="black"/>
<path d="M63.7098 25.5509C64.0177 25.9933 64.6333 26.1057 65.0763 25.7983L66.6304 24.7411C67.0734 24.4337 67.186 23.8188 66.8782 23.3765L58.1165 10.5699C57.8086 10.1275 57.193 10.015 56.75 10.3224L55.1959 11.3796C54.7529 11.6871 54.6403 12.3019 54.9481 12.7443L63.7098 25.5509Z" fill="black"/>
<path d="M35.1744 55.7978L35.8051 54.0283C36.0003 53.5109 35.73 52.9561 35.212 52.7611L26.2175 49.5145C25.737 49.3346 25.1814 49.597 24.9862 50.1219L24.3556 51.8914C24.1604 52.4088 24.4306 52.9636 24.9487 53.1586L33.9431 56.4052C34.4236 56.5701 35.0017 56.3002 35.1744 55.7978Z" fill="black"/>
<path d="M40.9776 97.9747C40.8425 97.4574 40.2869 97.15 39.7688 97.2849L25.6841 101.101C25.1585 101.251 24.8507 101.791 24.9859 102.309L25.4889 104.116C25.624 104.633 26.1796 104.94 26.6977 104.805L40.7824 100.989C41.3005 100.854 41.6083 100.299 41.4731 99.7818L40.9776 97.9747Z" fill="black"/>
<path d="M65.1157 125.402C64.6953 125.073 64.0796 125.155 63.7342 125.575L55.0627 136.762C54.7323 137.182 54.8149 137.797 55.2354 138.142L56.7144 139.296C57.1348 139.626 57.7505 139.544 58.0959 139.124L66.7674 127.937C67.0978 127.517 67.0152 126.902 66.5947 126.557L65.1157 125.402Z" fill="black"/>
<path d="M147.687 125.573C147.356 125.153 146.748 125.071 146.305 125.401L144.826 126.555C144.406 126.885 144.323 127.492 144.653 127.935L153.325 139.122C153.655 139.542 154.264 139.624 154.707 139.294L156.186 138.14C156.606 137.81 156.689 137.202 156.358 136.76L147.687 125.573Z" fill="black"/>
<path d="M185.744 101.115L171.66 97.2986C171.142 97.1636 170.601 97.4711 170.451 97.9884L169.948 99.7955C169.813 100.313 170.12 100.853 170.639 101.003L184.723 104.819C185.241 104.954 185.782 104.647 185.932 104.129L186.435 102.307C186.57 101.79 186.262 101.25 185.744 101.115Z" fill="black"/>
<path d="M187.066 51.8612L186.435 50.1217C186.24 49.6043 185.685 49.3569 185.167 49.5294L176.172 52.776C175.654 52.9709 175.406 53.5258 175.579 54.0431L176.21 55.8127C176.405 56.33 176.96 56.5775 177.478 56.405L186.473 53.1584C186.991 52.941 187.261 52.3861 187.066 51.8612Z" fill="black"/>
<path d="M146.344 25.7983C146.787 26.1057 147.402 25.9933 147.71 25.5509L156.472 12.7443C156.78 12.3019 156.667 11.6871 156.224 11.3796L154.67 10.3224C154.227 10.015 153.611 10.1275 153.304 10.5699L144.542 23.3765C144.234 23.8189 144.347 24.4337 144.79 24.7411L146.344 25.7983Z" fill="black"/>
</g>
<defs>
<clipPath id="clip0_624_305">
<rect width="211.422" height="150.914" fill="white"/>
</clipPath>
</defs>
</svg>
