<svg width="138" height="129" viewBox="0 0 138 129" fill="none" xmlns="http://www.w3.org/2000/svg">
<g clip-path="url(#clip0_623_293)">
<path d="M77.8225 69.9831C77.2513 69.4117 76.3236 69.4117 75.7524 69.9782L72.8376 72.8836L69.9228 69.9782C69.3515 69.4069 68.4239 69.4069 67.8526 69.9831C67.2814 70.5544 67.2814 71.4822 67.8575 72.0534L70.7675 74.954L67.8575 77.8545C67.2863 78.4259 67.2814 79.3536 67.8526 79.9249C68.1407 80.213 68.5167 80.3546 68.8877 80.3546C69.2637 80.3546 69.6348 80.213 69.9228 79.9249L72.8376 77.0195L75.7524 79.9249C76.0405 80.2081 76.4116 80.3546 76.7875 80.3546C77.1635 80.3546 77.5394 80.213 77.8226 79.9249C78.3939 79.3536 78.3939 78.4258 77.8177 77.8545L74.9078 74.954L77.8177 72.0534C78.389 71.4821 78.3938 70.5543 77.8225 69.9831Z" fill="black"/>
<path d="M53.0963 57.3361L56.0111 60.2416C56.2992 60.5248 56.6703 60.6713 57.0462 60.6713C57.4222 60.6713 57.7981 60.5297 58.0813 60.2416C58.6526 59.6703 58.6526 58.7425 58.0764 58.1712L55.1665 55.2706L58.0764 52.3701C58.6477 51.7988 58.6526 50.871 58.0813 50.2997C57.5101 49.7284 56.5824 49.7284 56.0112 50.2948L53.0964 53.2003L50.1815 50.2948C49.6103 49.7235 48.6826 49.7235 48.1114 50.2997C47.5402 50.871 47.5402 51.7988 48.1163 52.3701L51.0263 55.2706L48.1163 58.1663C47.5451 58.7376 47.5402 59.6654 48.1114 60.2367C48.3995 60.5248 48.7754 60.6664 49.1465 60.6664C49.5225 60.6664 49.8935 60.5248 50.1816 60.2367L53.0963 57.3361Z" fill="black"/>
<path d="M98.094 46.6655C101.443 46.0014 103.977 43.0471 103.977 39.5117C103.977 35.4049 100.701 32.0649 96.673 32.0649C93.06 32.0649 90.0377 34.6384 89.3541 38.0468L55.1475 38.0517C54.337 38.0517 53.6827 38.706 53.6827 39.5167C53.6827 40.3273 54.3369 40.9816 55.1475 40.9816H89.3541C89.9351 43.8676 92.2104 46.0942 95.1643 46.6656C94.8176 53.7022 92.7718 57.7405 84.6815 57.7405H74.4137C67.2755 57.7405 61.8369 61.0415 58.6821 67.287C55.987 72.6194 55.5866 78.7232 55.5866 81.8879V97.2751C52.2958 97.9734 49.7373 100.957 49.7373 104.414C49.7373 108.521 53.0184 111.866 57.0514 111.866C61.1625 111.866 64.5119 108.521 64.5119 104.414C64.5119 100.884 61.9339 97.9343 58.5161 97.2653V81.8931C58.5161 76.9171 59.6635 60.6755 74.4139 60.6755H84.6818C95.604 60.6706 97.7527 53.7948 98.094 46.6655ZM92.1373 39.5165C92.1373 37.0261 94.1733 34.9996 96.6732 34.9996C99.046 34.9996 101.048 37.0651 101.048 39.5165C101.048 41.9239 99.0851 43.8772 96.6732 43.8772C94.1293 43.8772 92.1373 41.9631 92.1373 39.5165ZM61.5729 104.408C61.5729 106.903 59.5418 108.93 57.042 108.93C54.6642 108.93 52.6575 106.859 52.6575 104.408C52.6575 102.084 54.7081 100.047 57.042 100.047C59.5028 100.043 61.5729 102.04 61.5729 104.408Z" fill="black"/>
<path d="M41.2574 32.0708C37.2293 32.0708 33.9531 35.4109 33.9531 39.5175C33.9531 43.5363 37.2293 46.808 41.2574 46.808C45.4418 46.808 48.718 43.6046 48.718 39.5175C48.718 35.4108 45.3685 32.0708 41.2574 32.0708ZM41.2574 43.8782C38.8454 43.8782 36.8827 41.92 36.8827 39.5175C36.8827 37.0711 38.8846 35.0006 41.2574 35.0006C43.7573 35.0006 45.7884 37.0271 45.7884 39.5175C45.7884 41.9639 43.7963 43.8782 41.2574 43.8782Z" fill="black"/>
<path d="M126.394 113.911C127.414 112.685 128.024 111.113 128.024 109.399C128.024 107.685 127.409 106.112 126.389 104.887C129.206 103.949 131.242 101.293 131.242 98.1723C131.242 94.2707 128.063 91.0966 124.152 91.0966H116.711C120.871 88.1766 123.601 83.352 123.601 77.9021C123.601 71.8323 120.222 66.5341 115.242 63.7849L115.237 30.4191C115.237 24.9159 110.75 20.438 105.238 20.438H91.6784V17.6448C91.6784 14.5977 89.0809 11.9218 86.1221 11.9218H76.6939C76.0006 8.24484 72.7635 5.45654 68.8868 5.45654C65.0833 5.45654 61.9146 8.24484 61.2359 11.9218H51.8175C48.8196 11.9218 46.0854 14.6466 46.0854 17.6448V20.438H32.7025C27.1901 20.438 22.7031 24.9158 22.7031 30.4191V61.7048C16.5511 63.6775 12.0934 69.3908 12.0934 76.1144C12.0934 79.6449 13.2652 82.9801 15.4134 85.6707C15.1644 86.0662 15.018 86.535 15.018 87.033V91.6916C15.018 92.8049 15.7308 93.7522 16.7171 94.1087L14.2221 108.147H13.8706C12.0152 108.147 10.5065 109.651 10.5065 111.502V116.009H10.0915C7.89442 116.009 6.24902 117.723 6.24902 119.989V124.862C6.24902 127.133 7.89442 128.847 10.0818 128.847H44.6059C46.8422 128.847 48.5998 127.094 48.5998 124.862V123.485H91.5122C92.6156 125.961 95.1057 127.694 97.9913 127.694L124.152 127.699C128.063 127.699 131.242 124.525 131.242 120.623C131.242 117.498 129.206 114.847 126.393 113.909L126.394 113.911ZM124.152 94.0219C126.447 94.0219 128.312 95.8824 128.312 98.1677C128.312 100.458 126.447 102.323 124.152 102.323H97.9915C95.6968 102.323 93.8316 100.458 93.8316 98.1677C93.8316 95.8824 95.6968 94.0219 97.9915 94.0219H124.152ZM120.666 77.8984C120.666 85.1743 114.729 91.093 107.435 91.093C100.14 91.093 94.2029 85.1746 94.2029 77.8984C94.2029 70.6222 100.14 64.7039 107.435 64.7039C114.734 64.7039 120.666 70.6222 120.666 77.8984ZM68.8819 8.38785C71.1377 8.38785 73.0467 9.87719 73.6765 11.9232H64.2435C64.8733 9.90157 66.7386 8.38785 68.8819 8.38785ZM49.0056 17.6462C49.0056 16.235 50.3923 14.853 51.8082 14.853H86.1174C87.4698 14.853 88.7442 16.2105 88.7442 17.6462V20.4394H49.0054L49.0056 17.6462ZM15.014 76.1161C15.014 69.3774 20.58 63.8937 27.4156 63.8937C34.1779 63.923 39.6805 69.4068 39.6707 76.1161C39.6707 79.2364 38.5429 82.1761 36.4873 84.4565H18.2122C16.1469 82.1858 15.014 79.2461 15.014 76.1161ZM19.6572 94.2672H34.8713L37.3419 108.149H17.1918L19.6572 94.2672ZM17.9386 91.3373V87.3868H36.5899V91.3373H17.9386ZM13.4271 111.505C13.4271 111.275 13.6273 111.08 13.8616 111.08H40.6762C40.9106 111.08 41.1059 111.275 41.1059 111.505V116.012H13.4263L13.4271 111.505ZM45.6663 124.866C45.6663 125.476 45.2172 125.92 44.602 125.92L10.0828 125.925C9.22351 125.925 9.17956 125.046 9.17956 124.87V119.997C9.17956 119.821 9.22351 118.947 10.0828 118.947H44.607C45.2124 118.947 45.6714 119.397 45.6714 119.997L45.6663 124.866ZM90.9023 120.564H48.5949V119.992C48.5949 117.761 46.8422 116.013 44.601 116.013H44.0249V111.505C44.0249 109.655 42.5162 108.151 40.6657 108.151H40.3142L37.8143 94.1123C38.8055 93.7509 39.5135 92.8036 39.5135 91.6951V87.0366C39.5135 86.5873 39.3963 86.1674 39.1961 85.7963C41.3981 83.0715 42.5993 79.6924 42.5993 76.1179C42.6042 67.802 35.798 61.0045 27.419 60.9657C26.8087 60.9657 26.2081 61.0048 25.6173 61.0732L25.6222 30.4212C25.6222 26.5343 28.7959 23.3701 32.692 23.3701H105.236C109.133 23.3701 112.306 26.5343 112.306 30.4212V62.5283C110.768 62.0399 109.132 61.7762 107.433 61.7762C98.5229 61.7762 91.2719 69.0082 91.2719 77.8998C91.2719 83.3493 94.0013 88.1739 98.1611 91.0943H97.9854C94.0745 91.0943 90.8959 94.2684 90.8959 98.17C90.8959 99.884 91.5111 101.461 92.5267 102.687C89.7095 103.624 87.6686 106.276 87.6686 109.401C87.6686 112.522 89.7046 115.173 92.5218 116.116C91.5209 117.327 90.9154 118.874 90.9008 120.564L90.9023 120.564ZM90.6045 109.401C90.6045 107.116 92.4745 105.255 94.7741 105.255H120.93C123.23 105.255 125.1 107.116 125.1 109.401C125.1 111.686 123.23 113.547 120.93 113.547H94.7741C92.4745 113.547 90.6045 111.686 90.6045 109.401ZM124.152 124.773H97.9865C95.6918 124.773 93.8267 122.912 93.8267 120.627C93.8267 118.342 95.6918 116.481 97.9865 116.481H124.147C126.442 116.481 128.307 118.342 128.307 120.627C128.312 122.912 126.447 124.773 124.152 124.773Z" fill="black"/>
</g>
<defs>
<clipPath id="clip0_623_293">
<rect width="137.492" height="128.86" fill="white"/>
</clipPath>
</defs>
</svg>
