<svg width="138" height="129" viewBox="0 0 138 129" fill="none" xmlns="http://www.w3.org/2000/svg">
<g clip-path="url(#clip0_625_2)">
<path fill-rule="evenodd" clip-rule="evenodd" d="M74.4597 17.878L76.7155 24.8789L84.0722 24.8671C84.8555 24.8671 85.4858 25.4977 85.4858 26.2815C85.4858 26.7529 85.2561 27.1713 84.9026 27.4247L84.9085 27.4306L78.9538 31.7444L81.2391 38.7394C81.4805 39.4819 81.0741 40.2833 80.332 40.525C79.849 40.6841 79.3366 40.5662 78.9773 40.2539L73.1109 35.9756L67.1679 40.3129C66.5376 40.7726 65.6541 40.6311 65.1947 40.0006C64.9179 39.6175 64.8589 39.1461 64.9944 38.7336H64.9885L67.2738 31.7385L61.319 27.4248C60.6829 26.9651 60.5416 26.0753 61.001 25.4447C61.3014 25.0322 61.7785 24.8259 62.2556 24.8613L69.5062 24.8731L71.7621 17.8722C72.0036 17.1297 72.7987 16.7171 73.5409 16.9588C73.9944 17.112 74.3242 17.4596 74.4597 17.878ZM17.0198 122.504H129.196V112.026H17.0198V122.504ZM130.621 125.344H15.607C14.8236 125.344 14.1875 124.708 14.1875 123.924V110.612C14.1875 109.828 14.8236 109.192 15.607 109.192H26.1972V97.2935C26.1972 96.5097 26.8333 95.8733 27.6167 95.8733H34.9263V83.9752C34.9263 83.1915 35.5624 82.555 36.3458 82.555H109.883C110.667 82.555 111.303 83.1914 111.303 83.9752V95.8733H118.612C119.396 95.8733 120.032 96.5097 120.032 97.2935V109.192H130.622C131.405 109.192 132.042 109.828 132.042 110.612V123.924C132.042 124.708 131.404 125.344 130.621 125.344ZM29.0298 109.192H117.186V98.7138H29.0298V109.192ZM37.7589 95.8733H108.457V85.3955H37.7589V95.8733ZM73.1103 10.7297C68.1391 10.7297 63.6392 12.7451 60.382 16.004C57.1247 19.2629 55.1104 23.7651 55.1104 28.7389C55.1104 33.7127 57.1247 38.2148 60.382 41.4738C63.6392 44.7327 68.1391 46.7481 73.1103 46.7481C78.0815 46.7481 82.5814 44.7327 85.8386 41.4738C89.0958 38.2148 91.1102 33.7127 91.1102 28.7389C91.1102 23.7651 89.0958 19.2629 85.8386 16.004C82.5814 12.7511 78.0815 10.7297 73.1103 10.7297ZM83.8302 18.0135C81.0854 15.2673 77.2982 13.5701 73.1103 13.5701C68.9224 13.5701 65.1351 15.2673 62.3904 18.0135C59.6457 20.7596 57.9494 24.5488 57.9494 28.7389C57.9494 32.9288 59.6457 36.7181 62.3904 39.4643C65.1351 42.2104 68.9224 43.9076 73.1103 43.9076C77.2982 43.9076 81.0854 42.2104 83.8302 39.4643C86.5749 36.7181 88.2712 32.9289 88.2712 28.7389C88.2712 24.5549 86.5749 20.7596 83.8302 18.0135ZM73.1103 -0.000973685C71.3609 -0.000973685 69.7235 0.529397 68.3452 1.43104C66.9316 2.36215 65.8007 3.68809 65.1234 5.24967C64.7876 6.02166 64.4284 6.55793 64.0219 6.77005C63.6744 6.94685 63.1502 6.9056 62.3905 6.57558C60.7766 5.88609 58.9978 5.7093 57.3015 6.03341C55.6463 6.35164 54.0679 7.1472 52.7956 8.42005C51.5587 9.65759 50.7754 11.1897 50.4396 12.8044C50.098 14.4604 50.2393 16.1929 50.8578 17.7841C51.17 18.5737 51.2936 19.2043 51.1523 19.6404C51.0286 20.0117 50.634 20.3476 49.8683 20.6599C48.2368 21.3082 46.8526 22.4396 45.8808 23.8657C44.9325 25.2624 44.3788 26.9479 44.3788 28.7452C44.3788 30.5485 44.9325 32.228 45.8808 33.6247C46.8349 35.0332 48.1956 36.147 49.7918 36.8011L49.8684 36.8365C50.6341 37.1429 51.0346 37.4788 51.1524 37.856C51.2938 38.2921 51.1642 38.9226 50.8579 39.7123C50.2394 41.2976 50.0981 43.036 50.4397 44.692C50.6164 45.5583 50.9286 46.4068 51.3703 47.1966L42.0817 63.2966C41.8049 63.7799 41.6694 64.3102 41.6753 64.8406C41.6871 65.3827 41.8402 65.9072 42.1406 66.3786C42.441 66.85 42.8533 67.2154 43.3304 67.457C43.8075 67.6927 44.3435 67.7988 44.9031 67.7517L51.4705 67.1977C51.5117 67.1918 51.5412 67.1977 51.5588 67.2036V67.2095C51.5824 67.2213 51.606 67.2449 51.6177 67.2743L54.4214 73.2439V73.2498C54.6629 73.7566 55.0222 74.175 55.464 74.4697C55.9057 74.7643 56.424 74.9352 56.9895 74.9588C57.549 74.9824 58.085 74.8586 58.5504 74.5993C59.0158 74.34 59.4103 73.957 59.693 73.4738L69.3939 56.6602C70.5248 57.1964 71.7852 57.5029 73.1045 57.5029C74.4239 57.5029 75.6843 57.2023 76.8152 56.6602L86.5161 73.4738H86.522C86.8047 73.9629 87.1993 74.3459 87.6587 74.5993C88.124 74.8527 88.6542 74.9824 89.2197 74.9588C89.7852 74.9352 90.3093 74.7643 90.7451 74.4697C91.1928 74.175 91.5521 73.7566 91.7877 73.2498V73.2439L94.5914 67.2743C94.6031 67.2449 94.6267 67.2213 94.6503 67.2095C94.6679 67.1977 94.6974 67.1977 94.7386 67.1977L101.306 67.7517C101.86 67.7988 102.396 67.6927 102.879 67.457C103.362 67.2154 103.774 66.85 104.068 66.3786C104.369 65.9072 104.522 65.3827 104.534 64.8406C104.546 64.3102 104.41 63.7798 104.127 63.2966L94.8388 47.1966C95.2805 46.4069 95.5927 45.5643 95.7694 44.692C96.111 43.036 95.9697 41.3035 95.3512 39.7123C95.0449 38.9227 94.9153 38.2921 95.0567 37.856C95.1745 37.4847 95.575 37.1429 96.3407 36.8365C97.9722 36.1882 99.3564 35.0568 100.328 33.6307C101.277 32.234 101.83 30.5485 101.83 28.7512C101.83 26.9479 101.277 25.2684 100.328 23.8717C99.374 22.4633 98.0134 21.3494 96.4172 20.6953L96.3406 20.6599C95.5749 20.3535 95.1744 20.0176 95.0566 19.6404C94.9152 19.2043 95.0448 18.5738 95.3511 17.7841C95.9754 16.1988 96.1109 14.4604 95.7693 12.8044C95.4335 11.1897 94.6502 9.65757 93.4133 8.42005L93.4074 8.42595C92.1292 7.14715 90.5566 6.35747 88.9015 6.03931C87.2052 5.71519 85.4205 5.89198 83.8125 6.58146C83.0527 6.90557 82.5285 6.95272 82.181 6.77594C81.7746 6.56968 81.4212 6.03341 81.0796 5.25555C80.3963 3.69382 79.2714 2.36789 77.8578 1.43692C76.4972 0.529395 74.8595 -0.000973685 73.1103 -0.000973685ZM92.9354 49.518L101.694 64.6933C101.712 64.7227 101.723 64.7522 101.723 64.7758C101.723 64.7876 101.712 64.8111 101.688 64.8465C101.67 64.876 101.653 64.8995 101.635 64.9054C101.617 64.9113 101.588 64.9172 101.553 64.9113L94.9851 64.3574C94.3608 64.3043 93.76 64.4458 93.2476 64.7463C92.7352 65.0409 92.317 65.4947 92.046 66.0663L89.2424 72.0301C89.2247 72.0595 89.2129 72.0831 89.1952 72.0949C89.1776 72.1067 89.1481 72.1126 89.1187 72.1185C89.0833 72.1185 89.0539 72.1126 89.0362 72.1067C89.0126 72.0949 88.995 72.0772 88.9832 72.0536L88.9773 72.0478H88.9832L79.1646 55.035C79.9833 54.2454 80.643 53.2966 81.1083 52.2417C81.4441 51.4697 81.8034 50.9334 82.2098 50.7213C82.5573 50.5445 83.0815 50.5857 83.8413 50.9157C85.4551 51.6052 87.2339 51.782 88.9302 51.4579C90.3615 51.1751 91.7516 50.5317 92.9354 49.518ZM67.0668 55.028L57.2482 72.0407C57.2305 72.0702 57.2129 72.0938 57.1952 72.0996C57.1775 72.1114 57.1481 72.1173 57.1127 72.1114C57.0833 72.1114 57.0538 72.0996 57.0362 72.0879C57.0185 72.0761 57.0067 72.0525 56.9891 72.023L54.1854 66.0593C53.9144 65.4877 53.4962 65.0339 52.9838 64.7393V64.7451L52.9779 64.7393C52.4596 64.4387 51.8588 64.2973 51.2404 64.3503L44.673 64.9043C44.6318 64.9102 44.6082 64.9043 44.5905 64.8984C44.5788 64.8925 44.5611 64.8748 44.5375 64.8394C44.514 64.8041 44.5022 64.7805 44.5022 64.7687C44.5022 64.7452 44.5081 64.7157 44.5317 64.6862L53.2842 49.517C54.4622 50.5247 55.8522 51.173 57.3013 51.4499C58.9976 51.774 60.7823 51.5972 62.3903 50.9077C63.1501 50.5836 63.6743 50.5364 64.0217 50.7132C64.4281 50.9195 64.7816 51.4558 65.1232 52.2336C65.5826 53.2885 66.2481 54.2382 67.0668 55.028ZM76.32 3.79366C75.4012 3.19257 74.2998 2.83899 73.11 2.83899C71.9201 2.83899 70.8188 3.19258 69.8999 3.79366C68.9458 4.42422 68.1801 5.31994 67.7206 6.38065C67.1258 7.73605 66.3718 8.74375 65.3116 9.28595C64.1925 9.85759 62.8848 9.86937 61.2828 9.18577C60.1931 8.72023 58.9857 8.59647 57.837 8.8204C56.7238 9.03254 55.6636 9.56881 54.8037 10.4292C53.9673 11.266 53.4313 12.2973 53.2134 13.3698C52.9837 14.4895 53.0779 15.6739 53.502 16.7465C54.0439 18.1255 54.2147 19.369 53.8495 20.5005C53.4608 21.6967 52.5478 22.6338 50.9222 23.2821H50.9163C49.8149 23.7181 48.8783 24.4842 48.2245 25.4507C47.5942 26.3818 47.2232 27.5192 47.2232 28.7449C47.2232 29.9707 47.5942 31.108 48.2245 32.0392C48.8665 32.9879 49.7794 33.7364 50.8515 34.1784L50.9221 34.202C52.5419 34.8502 53.4607 35.7872 53.8495 36.9835C54.2146 38.115 54.0379 39.3584 53.5019 40.7374C53.0779 41.8159 52.9836 42.9945 53.2133 44.1142C53.4372 45.1867 53.9673 46.218 54.8037 47.0548C55.6636 47.9152 56.7237 48.4515 57.837 48.6636C58.9855 48.8816 60.193 48.7638 61.2827 48.2982C62.8848 47.6146 64.1924 47.6264 65.3115 48.198C66.3717 48.7402 67.1315 49.7479 67.7206 51.1034C68.1388 52.0639 68.8103 52.9007 69.6466 53.5137C69.6878 53.5431 69.7349 53.5726 69.7703 53.6021L69.8998 53.6905C70.8187 54.2916 71.92 54.6451 73.1099 54.6451C74.2997 54.6451 75.4011 54.2915 76.3199 53.6905L76.4436 53.608C76.4907 53.5726 76.5379 53.5372 76.585 53.5078C77.4155 52.8949 78.0869 52.064 78.5051 51.1033C79.1 49.7479 79.8539 48.7402 80.9142 48.198C82.0333 47.6264 83.3409 47.6146 84.943 48.2982C86.0326 48.7638 87.24 48.8875 88.3887 48.6636C89.4783 48.4573 90.515 47.9446 91.3513 47.1255C91.369 47.102 91.3925 47.0784 91.4161 47.0548C92.2525 46.218 92.7885 45.1867 93.0064 44.1142C93.2361 42.9945 93.1419 41.816 92.7178 40.7375C92.1759 39.3585 92.0051 38.115 92.3703 36.9836C92.759 35.7873 93.672 34.8502 95.2976 34.202H95.3035C96.4049 33.7659 97.3415 32.9998 97.9953 32.0392C98.6255 31.1081 98.9966 29.9707 98.9966 28.745C98.9966 27.5192 98.6255 26.3819 97.9953 25.4508C97.3533 24.502 96.4404 23.7536 95.3683 23.3115L95.2977 23.2821C93.6779 22.6338 92.759 21.6968 92.3703 20.5005C92.0051 19.369 92.1819 18.1256 92.7178 16.7466C93.1419 15.6681 93.2362 14.4895 93.0065 13.3698C92.7826 12.2973 92.2525 11.266 91.4161 10.4292L91.422 10.4233L91.4161 10.4174C90.5621 9.56293 89.5019 9.02666 88.3828 8.81452C87.2284 8.59647 86.0268 8.71433 84.9371 9.17989C83.335 9.86348 82.0274 9.85759 80.9083 9.28007C79.8481 8.7379 79.0883 7.73615 78.4992 6.37477C78.0398 5.32581 77.2742 4.42412 76.32 3.79366ZM74.341 26.7292L73.11 22.9224L71.8789 26.7292C71.6964 27.3009 71.1604 27.7134 70.5301 27.7134L66.5309 27.7075L69.7703 30.0529C70.2533 30.4006 70.483 31.0371 70.2887 31.6382L69.0459 35.4451L72.2559 33.0996C72.7389 32.7342 73.428 32.7048 73.9405 33.0819L77.174 35.445L75.943 31.6911C75.7251 31.1077 75.9136 30.4359 76.4437 30.0529L79.6831 27.7075L75.7544 27.7134C75.1301 27.7428 74.5354 27.3539 74.341 26.7292Z" fill="black"/>
</g>
<defs>
<clipPath id="clip0_625_2">
<rect width="137.492" height="128.86" fill="white"/>
</clipPath>
</defs>
</svg>
