<svg width="137" height="143" viewBox="0 0 137 143" fill="none" xmlns="http://www.w3.org/2000/svg">
<path d="M114.792 62.9712H111.219V43.1023C111.219 42.2169 110.431 41.5029 109.465 41.5029H104.132L108.363 34.8292C108.598 34.4627 108.66 34.0247 108.54 33.6154C108.42 33.206 108.128 32.8585 107.72 32.6443L73.8823 14.8372C73.4801 14.623 72.9997 14.5659 72.5505 14.6754C72.1014 14.7849 71.7201 15.0514 71.4851 15.4227L68.6911 19.8306L59.2015 14.8372C58.3606 14.3945 57.29 14.6563 56.8043 15.4227L40.2857 41.5027H27.6992C20.2361 41.5027 14.1621 47.0387 14.1621 53.8408V122.51C14.1621 127.527 18.6432 131.611 24.1478 131.611H114.803C120.302 131.611 124.778 127.527 124.778 122.51V72.0769C124.778 67.0597 120.302 62.9755 114.803 62.9755L114.792 62.9712ZM121.262 108.206H90.6627C84.3903 108.206 79.2878 103.555 79.2878 97.8386C79.2878 92.1218 84.3903 87.4712 90.6627 87.4712H121.262V108.211V108.206ZM107.709 44.7022V62.9712H90.5263L102.105 44.7022H107.709ZM73.6468 18.4078L104.444 34.6112L86.4739 62.9712H75.8459L93.6814 34.8244C93.9164 34.4579 93.979 34.02 93.8589 33.6106C93.7388 33.2013 93.4464 32.8538 93.039 32.6396L71.73 21.4296L73.6468 18.4078ZM58.9666 18.4078L89.7642 34.6112L71.7937 62.9712H69.266L83.4448 40.5895C83.6798 40.223 83.7425 39.7851 83.6224 39.3757C83.5023 38.9664 83.2046 38.6189 82.8024 38.4047C82.0765 38.0239 81.5542 37.4051 81.34 36.6672C81.1207 35.9294 81.2356 35.1535 81.6586 34.4918C81.8936 34.1253 81.9563 33.6874 81.8362 33.278C81.7161 32.8686 81.4236 32.5164 81.0162 32.3069L65.5419 24.1672C65.1397 23.953 64.6592 23.8959 64.2101 24.0054C63.761 24.1148 63.3797 24.3862 63.1447 24.7527C62.7269 25.4143 62.048 25.8903 61.2384 26.0856C60.4237 26.2855 59.5776 26.1808 58.8516 25.8C58.4495 25.5858 57.969 25.5286 57.5199 25.6381C57.0707 25.7476 56.6842 26.0142 56.4544 26.3855L36.1014 58.5206C35.6157 59.287 35.9029 60.2628 36.7438 60.7055C37.663 61.191 38.2271 62.0526 38.3054 62.9713H30.7483L42.7604 44.0115C42.8126 43.9448 42.8544 43.8734 42.8962 43.7973L58.9762 18.4118L58.9666 18.4078ZM54.6318 57.6643C53.791 57.2216 52.7203 57.4834 52.2346 58.2498L49.2368 62.9765H41.805C41.7423 61.4675 41.0582 60.011 39.8883 58.9257L58.7212 29.19C59.8284 29.4565 60.9982 29.4565 62.142 29.1804C63.2805 28.9043 64.2885 28.3712 65.1032 27.6334L77.9404 34.3833C77.648 35.3924 77.6427 36.4586 77.9509 37.4964C78.2538 38.5341 78.8387 39.4528 79.6482 40.1953L65.218 62.9717H53.2999L55.2794 59.8491C55.7651 59.0828 55.4778 58.1069 54.637 57.6642L54.6318 57.6643ZM27.6941 44.7022H38.2542L26.707 62.9285C21.7194 62.4763 17.7502 58.6397 17.6667 53.9844V53.8416C17.6667 48.8007 22.1634 44.7022 27.6941 44.7022ZM114.792 128.408H24.1431C20.5708 128.408 17.667 125.761 17.667 122.505V62.0904C20.153 64.5895 23.7305 66.1698 27.684 66.1746H27.6944H27.6996H39.8161H39.8213H39.8266H50.2457H50.251H50.2562H87.4834H87.4886H87.4938H109.371C109.387 66.1746 109.402 66.1698 109.418 66.1698C109.434 66.1698 109.449 66.1746 109.465 66.1746H114.792C118.359 66.1746 121.258 68.8212 121.258 72.0771V84.2727H90.658C82.4481 84.2727 75.7679 90.3608 75.7679 97.844C75.7679 105.327 82.4476 111.415 90.658 111.415H121.258V122.516C121.258 125.772 118.354 128.418 114.792 128.418L114.792 128.408ZM83.0964 97.8335C83.0964 102.094 86.8985 105.559 91.5674 105.559C96.2364 105.559 100.044 102.094 100.044 97.8335C100.044 93.5733 96.2416 90.108 91.5674 90.108C86.8933 90.108 83.0964 93.5733 83.0964 97.8335ZM91.5674 93.3067C94.3093 93.3067 96.5341 95.3393 96.5341 97.8335C96.5341 100.328 94.3092 102.36 91.5674 102.36C88.8257 102.36 86.606 100.332 86.606 97.8335C86.606 95.3344 88.8309 93.3067 91.5674 93.3067ZM59.751 57.0638C60.4666 57.0638 61.1872 56.9781 61.8976 56.802C64.0231 56.2831 65.7989 55.0407 66.8957 53.3033C67.9976 51.5658 68.2901 49.5476 67.7208 47.6102C67.1516 45.6729 65.7937 44.0592 63.8874 43.0548C61.9811 42.0505 59.7616 41.7838 57.6359 42.3075C55.5104 42.8263 53.7398 44.0687 52.6378 45.8061C51.5359 47.5436 51.2434 49.5618 51.8127 51.4992C52.3819 53.4365 53.7398 55.0503 55.6461 56.0546C56.9152 56.721 58.3201 57.0638 59.7458 57.0638H59.751ZM55.6774 47.4055V47.4008C56.3041 46.4059 57.3225 45.692 58.5445 45.3968C58.9519 45.2969 59.3645 45.2493 59.7771 45.2493C60.597 45.2493 61.4013 45.4444 62.1273 45.83C63.2188 46.406 64.0021 47.3342 64.3259 48.4432C64.6498 49.5523 64.4826 50.7138 63.8507 51.7087C63.224 52.7035 62.2055 53.4175 60.9835 53.7126C59.7666 54.0077 58.4923 53.8554 57.4008 53.2842C56.3092 52.7082 55.5259 51.78 55.2021 50.671C54.8783 49.5619 55.0454 48.4004 55.6774 47.4055ZM64.2582 39.2658L67.9662 33.4109C68.4519 32.6445 69.5226 32.3827 70.3634 32.8254C71.2043 33.2681 71.4915 34.244 71.0058 35.0103L67.2978 40.8652C66.974 41.3793 66.3838 41.6649 65.778 41.6649C65.4803 41.6649 65.1774 41.5935 64.9006 41.4507C64.0598 41.008 63.7725 40.0322 64.2582 39.2658Z" fill="black"/>
</svg>
