<svg width="121" height="106" viewBox="0 0 121 106" fill="none" xmlns="http://www.w3.org/2000/svg">
<g clip-path="url(#clip0_1_682)">
<path d="M12.9713 84.6616V41.2976C18.3337 44.5317 30.8462 50.729 49.3881 52.1592V60.0438C49.3881 63.8164 52.4475 66.8688 56.2288 66.8688H58.0506C61.8319 66.8688 64.8912 63.8164 64.8912 60.0438V52.1592C83.4297 50.7256 95.9422 44.5283 101.305 41.2976V53.1709H105.01V23.0932H79.535V16.7279C79.535 13.8127 77.1631 11.4463 74.2412 11.4463H40.0381C37.1163 11.4463 34.7444 13.8127 34.7444 16.7279V23.0932H9.26562V84.6616C9.26562 87.419 11.5138 89.6585 14.2741 89.6585H68.4387V85.9614H14.2741C13.5556 85.9614 12.9713 85.3784 12.9713 84.6616ZM61.1787 60.0438C61.1787 61.7586 59.7694 63.1648 58.0506 63.1648H56.2288C54.51 63.1648 53.1006 61.7586 53.1006 60.0438V52.4987H61.1787V60.0438ZM38.4225 16.7279C38.4225 15.8705 39.1444 15.1503 40.0381 15.1503H74.2412C75.135 15.1503 75.8569 15.8705 75.8569 16.7279V23.0932H38.4225V16.7279ZM101.305 26.7904V36.9111C97.8637 39.2193 82.0753 48.7913 57.1363 48.7913C32.1972 48.7913 16.4122 39.2193 12.9713 36.9111V26.7904H101.305Z" fill="black"/>
<path d="M105.397 90.0501H79.4712V78.0361H75.7656V93.7506H109.102V78.0361H105.397V90.0501Z" fill="black"/>
<path d="M96.9275 79.7236H87.9453V88.6063H96.9275V79.7236Z" fill="black"/>
<path d="M92.4348 55.8564L73.1367 73.4812L75.6392 76.2077L92.4348 60.8671L109.234 76.2077L111.733 73.4812L92.4348 55.8564Z" fill="black"/>
</g>
<defs>
<clipPath id="clip0_1_682">
<rect width="121" height="106" fill="white"/>
</clipPath>
</defs>
</svg>
