<svg width="103" height="106" viewBox="0 0 103 106" fill="none" xmlns="http://www.w3.org/2000/svg">
<g clip-path="url(#clip0_1_689)">
<path d="M29.7734 91.6753C26.2232 91.6753 23.3359 89.1055 23.3359 85.9455C23.3359 82.7856 26.2232 80.2158 29.7734 80.2158C30.6634 80.2158 31.3828 80.8561 31.3828 81.6483C31.3828 82.4404 30.6634 83.0807 29.7734 83.0807C27.9983 83.0807 26.5547 84.3656 26.5547 85.9455C26.5547 87.5255 27.9983 88.8104 29.7734 88.8104C30.6634 88.8104 31.3828 89.4507 31.3828 90.2428C31.3828 91.035 30.6634 91.6753 29.7734 91.6753Z" fill="black"/>
<path d="M89.3203 83.0807H29.7734C28.8835 83.0807 28.1641 82.4404 28.1641 81.6483C28.1641 80.8561 28.8835 80.2158 29.7734 80.2158H89.3203C90.2103 80.2158 90.9297 80.8561 90.9297 81.6483C90.9297 82.4404 90.2103 83.0807 89.3203 83.0807Z" fill="black"/>
<path d="M89.3203 91.6754H29.7734C28.8835 91.6754 28.1641 91.0351 28.1641 90.243C28.1641 89.4508 28.8835 88.8105 29.7734 88.8105H89.3203C90.2103 88.8105 90.9297 89.4508 90.9297 90.243C90.9297 91.0351 90.2103 91.6754 89.3203 91.6754Z" fill="black"/>
<path d="M89.3203 83.0811C88.4303 83.0811 87.7109 82.4408 87.7109 81.6487C87.7109 80.8565 88.4303 80.2162 89.3203 80.2162C91.0955 80.2162 92.5391 78.9314 92.5391 77.3514C92.5391 76.5592 93.2585 75.9189 94.1484 75.9189C95.0384 75.9189 95.7578 76.5592 95.7578 77.3514C95.7578 80.5113 92.8706 83.0811 89.3203 83.0811Z" fill="black"/>
<path d="M94.1484 7.16216C93.2585 7.16216 92.5391 6.52043 92.5391 5.72973C92.5391 4.14976 91.0955 2.86486 89.3203 2.86486C88.4303 2.86486 87.7109 2.22313 87.7109 1.43243C87.7109 0.64173 88.4303 0 89.3203 0C92.8706 0 95.7578 2.56978 95.7578 5.72973C95.7578 6.52043 95.0384 7.16216 94.1484 7.16216Z" fill="black"/>
<path d="M24.9453 7.16216C24.0553 7.16216 23.3359 6.52043 23.3359 5.72973C23.3359 2.56978 26.2232 0 29.7734 0C30.6634 0 31.3828 0.64173 31.3828 1.43243C31.3828 2.22313 30.6634 2.86486 29.7734 2.86486C27.9983 2.86486 26.5547 4.14976 26.5547 5.72973C26.5547 6.52043 25.8353 7.16216 24.9453 7.16216Z" fill="black"/>
<path d="M89.3203 91.6758C88.4303 91.6758 87.7109 91.0355 87.7109 90.2434C87.7109 89.4513 88.4303 88.811 89.3203 88.811C91.0955 88.811 92.5391 87.5261 92.5391 85.9461C92.5391 85.154 93.2585 84.5137 94.1484 84.5137C95.0384 84.5137 95.7578 85.154 95.7578 85.9461C95.7578 89.1061 92.8706 91.6758 89.3203 91.6758Z" fill="black"/>
<path d="M94.1488 34.3783C93.7368 34.3783 93.3248 34.2379 93.011 33.9586C92.3817 33.3985 92.3817 32.4932 93.011 31.9332L98.977 26.6231V10.027H94.1488C93.2589 10.027 92.5395 9.38524 92.5395 8.59454C92.5395 7.80384 93.2589 7.16211 94.1488 7.16211H100.586C101.476 7.16211 102.196 7.80384 102.196 8.59454V27.2162C102.196 27.5958 102.027 27.961 101.724 28.2289L95.2867 33.9586C94.9728 34.2379 94.5608 34.3783 94.1488 34.3783Z" fill="black"/>
<path d="M89.3203 2.86486H29.7734C28.8835 2.86486 28.1641 2.22313 28.1641 1.43243C28.1641 0.64173 28.8835 0 29.7734 0H89.3203C90.2103 0 90.9297 0.64173 90.9297 1.43243C90.9297 2.22313 90.2103 2.86486 89.3203 2.86486Z" fill="black"/>
<path d="M24.9453 87.378C24.0553 87.378 23.3359 86.7377 23.3359 85.9455V5.72931C23.3359 4.9386 24.0553 4.29688 24.9453 4.29688C25.8353 4.29688 26.5547 4.9386 26.5547 5.72931V85.9455C26.5547 86.7377 25.8353 87.378 24.9453 87.378Z" fill="black"/>
<path d="M87.7109 87.3785H31.3828C30.4928 87.3785 29.7734 86.7382 29.7734 85.9461C29.7734 85.154 30.4928 84.5137 31.3828 84.5137H87.7109C88.6009 84.5137 89.3203 85.154 89.3203 85.9461C89.3203 86.7382 88.6009 87.3785 87.7109 87.3785Z" fill="black"/>
<path d="M87.7109 87.378C86.821 87.378 86.1016 86.7377 86.1016 85.9455V81.6483C86.1016 80.8561 86.821 80.2158 87.7109 80.2158C88.6009 80.2158 89.3203 80.8561 89.3203 81.6483V85.9455C89.3203 86.7377 88.6009 87.378 87.7109 87.378Z" fill="black"/>
<path d="M31.3828 87.378C30.4928 87.378 29.7734 86.7377 29.7734 85.9455V81.6483C29.7734 80.8561 30.4928 80.2158 31.3828 80.2158C32.2728 80.2158 32.9922 80.8561 32.9922 81.6483V85.9455C32.9922 86.7377 32.2728 87.378 31.3828 87.378Z" fill="black"/>
<path d="M94.1484 87.378C93.2585 87.378 92.5391 86.7377 92.5391 85.9455V5.72931C92.5391 4.9386 93.2585 4.29688 94.1484 4.29688C95.0384 4.29688 95.7578 4.9386 95.7578 5.72931V85.9455C95.7578 86.7377 95.0384 87.378 94.1484 87.378Z" fill="black"/>
<path d="M24.9437 10.027H2.41406C1.52408 10.027 0.804688 9.38524 0.804688 8.59454C0.804688 7.80384 1.52408 7.16211 2.41406 7.16211H24.9437C25.8337 7.16211 26.5531 7.80384 26.5531 8.59454C26.5531 9.38524 25.8337 10.027 24.9437 10.027Z" fill="black"/>
<path d="M24.9437 81.649H10.4609C9.57095 81.649 8.85156 81.0087 8.85156 80.2166C8.85156 79.4245 9.57095 78.7842 10.4609 78.7842H24.9437C25.8337 78.7842 26.5531 79.4245 26.5531 80.2166C26.5531 81.0087 25.8337 81.649 24.9437 81.649Z" fill="black"/>
<path d="M2.41406 74.4864C1.52408 74.4864 0.804688 73.8461 0.804688 73.054V8.59454C0.804688 7.80384 1.52408 7.16211 2.41406 7.16211C3.30405 7.16211 4.02344 7.80384 4.02344 8.59454V73.054C4.02344 73.8461 3.30405 74.4864 2.41406 74.4864Z" fill="black"/>
<path d="M10.4613 81.6495C10.0493 81.6495 9.63734 81.5091 9.32351 81.2298L1.27664 74.0676C0.647371 73.5075 0.647371 72.6022 1.27664 72.0421C1.9059 71.4821 2.92303 71.4821 3.55229 72.0421L11.5992 79.2043C12.2284 79.7644 12.2284 80.6697 11.5992 81.2298C11.2853 81.5091 10.8733 81.6495 10.4613 81.6495Z" fill="black"/>
<path d="M10.4609 81.6491C9.57095 81.6491 8.85156 81.0088 8.85156 80.2167V73.0545C8.85156 72.2624 9.57095 71.6221 10.4609 71.6221C11.3509 71.6221 12.0703 72.2624 12.0703 73.0545V80.2167C12.0703 81.0088 11.3509 81.6491 10.4609 81.6491Z" fill="black"/>
<path d="M10.4609 74.4869H2.41406C1.52408 74.4869 0.804688 73.8466 0.804688 73.0545C0.804688 72.2624 1.52408 71.6221 2.41406 71.6221H10.4609C11.3509 71.6221 12.0703 72.2624 12.0703 73.0545C12.0703 73.8466 11.3509 74.4869 10.4609 74.4869Z" fill="black"/>
<path d="M24.9453 30.0807H13.6797C12.7897 30.0807 12.0703 29.439 12.0703 28.6483C12.0703 27.8576 12.7897 27.2158 13.6797 27.2158H24.9453C25.8353 27.2158 26.5547 27.8576 26.5547 28.6483C26.5547 29.439 25.8353 30.0807 24.9453 30.0807Z" fill="black"/>
<path d="M24.9453 38.6754H13.6797C12.7897 38.6754 12.0703 38.0337 12.0703 37.243C12.0703 36.4523 12.7897 35.8105 13.6797 35.8105H24.9453C25.8353 35.8105 26.5547 36.4523 26.5547 37.243C26.5547 38.0337 25.8353 38.6754 24.9453 38.6754Z" fill="black"/>
<path d="M24.9453 47.2701H13.6797C12.7897 47.2701 12.0703 46.6284 12.0703 45.8377C12.0703 45.047 12.7897 44.4053 13.6797 44.4053H24.9453C25.8353 44.4053 26.5547 45.047 26.5547 45.8377C26.5547 46.6284 25.8353 47.2701 24.9453 47.2701Z" fill="black"/>
<path d="M24.9453 55.8649H13.6797C12.7897 55.8649 12.0703 55.2246 12.0703 54.4324C12.0703 53.6403 12.7897 53 13.6797 53H24.9453C25.8353 53 26.5547 53.6403 26.5547 54.4324C26.5547 55.2246 25.8353 55.8649 24.9453 55.8649Z" fill="black"/>
<path d="M74.8288 24.3766H45.8633C44.9733 24.3766 44.2539 23.7349 44.2539 22.9442C44.2539 22.1534 44.9733 21.5117 45.8633 21.5117H74.8288C75.7188 21.5117 76.4382 22.1534 76.4382 22.9442C76.4382 23.7349 75.7188 24.3766 74.8288 24.3766Z" fill="black"/>
<path d="M60.3477 53.0314C59.4577 53.0314 58.7383 52.3911 58.7383 51.5989V18.6473C58.7383 17.8566 59.4577 17.2148 60.3477 17.2148C61.2376 17.2148 61.957 17.8566 61.957 18.6473V51.6004C61.957 52.3911 61.2376 53.0314 60.3477 53.0314Z" fill="black"/>
<path d="M73.2227 53.0319H47.4727C46.5827 53.0319 45.8633 52.3916 45.8633 51.5994C45.8633 50.8073 46.5827 50.167 47.4727 50.167H73.2227C74.1126 50.167 74.832 50.8073 74.832 51.5994C74.832 52.3916 74.1126 53.0319 73.2227 53.0319Z" fill="black"/>
<path d="M79.6652 63.0543H41.0273C40.1374 63.0543 39.418 62.414 39.418 61.6219C39.418 60.8298 40.1374 60.1895 41.0273 60.1895H79.6652C80.5552 60.1895 81.2746 60.8298 81.2746 61.6219C81.2746 62.414 80.5552 63.0543 79.6652 63.0543Z" fill="black"/>
<path d="M70.0136 67.3502H50.6914C49.8014 67.3502 49.082 66.7099 49.082 65.9178C49.082 65.1256 49.8014 64.4854 50.6914 64.4854H70.0136C70.9035 64.4854 71.6229 65.1256 71.6229 65.9178C71.6229 66.7099 70.9035 67.3502 70.0136 67.3502Z" fill="black"/>
<path d="M45.8633 41.5694C42.313 41.5694 39.4258 38.9996 39.4258 35.8397C39.4258 35.049 40.1452 34.4072 41.0352 34.4072C41.9251 34.4072 42.6445 35.049 42.6445 35.8397C42.6445 37.4196 44.0881 38.7045 45.8633 38.7045C47.6384 38.7045 49.082 37.4196 49.082 35.8397C49.082 35.049 49.8014 34.4072 50.6914 34.4072C51.5814 34.4072 52.3008 35.049 52.3008 35.8397C52.3008 38.9982 49.4136 41.5694 45.8633 41.5694Z" fill="black"/>
<path d="M50.6914 37.2721H41.0352C40.1452 37.2721 39.4258 36.6304 39.4258 35.8397C39.4258 35.049 40.1452 34.4072 41.0352 34.4072H50.6914C51.5814 34.4072 52.3008 35.049 52.3008 35.8397C52.3008 36.6304 51.5814 37.2721 50.6914 37.2721Z" fill="black"/>
<path d="M41.0346 37.2724C40.8673 37.2724 40.6951 37.2481 40.5261 37.198C39.6844 36.9473 39.2273 36.1365 39.509 35.3859L44.3371 22.4912C44.6187 21.742 45.5216 21.3323 46.3729 21.5859C47.2146 21.8365 47.6717 22.6473 47.3901 23.3979L42.5619 36.2927C42.3366 36.8928 41.709 37.2724 41.0346 37.2724Z" fill="black"/>
<path d="M50.691 37.2719C50.0167 37.2719 49.3891 36.8923 49.1654 36.2921L44.3372 23.3973C44.0556 22.6468 44.511 21.836 45.3544 21.5853C46.2025 21.3332 47.1102 21.7415 47.3902 22.4906L52.2183 35.3854C52.5 36.136 52.0445 36.9467 51.2012 37.1974C51.0306 37.2475 50.86 37.2719 50.691 37.2719Z" fill="black"/>
<path d="M74.832 41.5694C71.2817 41.5694 68.3945 38.9996 68.3945 35.8397C68.3945 35.049 69.1139 34.4072 70.0039 34.4072C70.8939 34.4072 71.6133 35.049 71.6133 35.8397C71.6133 37.4196 73.0569 38.7045 74.832 38.7045C76.6072 38.7045 78.0508 37.4196 78.0508 35.8397C78.0508 35.049 78.7702 34.4072 79.6602 34.4072C80.5501 34.4072 81.2695 35.049 81.2695 35.8397C81.2695 38.9982 78.3823 41.5694 74.832 41.5694Z" fill="black"/>
<path d="M79.6602 37.2721H70.0039C69.1139 37.2721 68.3945 36.6304 68.3945 35.8397C68.3945 35.049 69.1139 34.4072 70.0039 34.4072H79.6602C80.5501 34.4072 81.2695 35.049 81.2695 35.8397C81.2695 36.6304 80.5501 37.2721 79.6602 37.2721Z" fill="black"/>
<path d="M70.0034 37.2724C69.836 37.2724 69.6638 37.2481 69.4948 37.198C68.6531 36.9473 68.1961 36.1365 68.4777 35.3859L73.3058 22.4912C73.5875 21.742 74.4887 21.3323 75.3417 21.5859C76.1834 21.8365 76.6405 22.6473 76.3588 23.3979L71.5307 36.2927C71.3054 36.8928 70.6777 37.2724 70.0034 37.2724Z" fill="black"/>
<path d="M79.6598 37.2719C78.9855 37.2719 78.3578 36.8923 78.1341 36.2921L73.306 23.3973C73.0243 22.6468 73.4798 21.836 74.3231 21.5853C75.1712 21.3332 76.0773 21.7415 76.359 22.4906L81.1871 35.3854C81.4687 36.136 81.0133 36.9467 80.17 37.1974C79.9994 37.2475 79.8288 37.2719 79.6598 37.2719Z" fill="black"/>
</g>
<defs>
<clipPath id="clip0_1_689">
<rect width="103" height="106" fill="white"/>
</clipPath>
</defs>
</svg>
