<svg width="124" height="143" viewBox="0 0 124 143" fill="none" xmlns="http://www.w3.org/2000/svg">
<g opacity="0.74">
<path d="M104.047 102.953C103.393 102.953 102.752 103.025 102.137 103.161L95.5863 87.7949C98.2828 85.9251 100.055 82.7604 100.055 79.1838C100.055 73.4521 95.5024 68.7843 89.9016 68.7843C87.7446 68.7843 85.7465 69.477 84.0977 70.6587L73.891 60.3271H81.0476C82.0643 60.3271 82.8909 59.4805 82.8909 58.4392C82.8909 48.7054 76.4372 40.4838 67.6808 38.0302C70.9078 36.1015 73.0869 32.5204 73.0869 28.4276C73.0869 22.3019 68.2201 17.3174 62.2393 17.3174C56.2586 17.3174 51.3917 22.3021 51.3917 28.4276C51.3917 32.5249 53.5666 36.106 56.7978 38.0302C48.041 40.4841 41.5877 48.7012 41.5877 58.4392C41.5877 59.4805 42.4144 60.3271 43.431 60.3271H50.5876L40.381 70.6587C38.7366 69.4816 36.7341 68.7843 34.577 68.7843C28.9808 68.7843 24.4233 73.4475 24.4233 79.1838C24.4233 82.7604 26.1959 85.9251 28.8923 87.7949L22.3413 103.161C21.7224 103.025 21.0859 102.953 20.4317 102.953C15.3659 102.953 11.2461 107.172 11.2461 112.361C11.2461 117.549 15.3659 121.769 20.4317 121.769C25.4975 121.769 29.6172 117.549 29.6172 112.361C29.6172 109.192 28.0745 106.38 25.7229 104.678L32.274 89.3116C33.0166 89.4882 33.7857 89.5832 34.577 89.5832C35.3683 89.5832 36.1418 89.4882 36.8845 89.3116L43.4356 104.678C41.0795 106.385 39.5412 109.192 39.5412 112.361C39.5412 117.549 43.661 121.769 48.7268 121.769C53.7926 121.769 57.9124 117.549 57.9124 112.361C57.9124 107.172 53.7926 102.953 48.7268 102.953C48.0726 102.953 47.4316 103.025 46.8172 103.161L40.2661 87.7949C42.9625 85.9251 44.7351 82.7604 44.7351 79.1838C44.7351 77.0197 44.0853 75.0095 42.9758 73.3434L55.8344 60.3277H68.6533L81.5119 73.3434C80.4024 75.0095 79.7526 77.0197 79.7526 79.1838C79.7526 82.7604 81.5252 85.9251 84.2216 87.7949L77.6705 103.161C77.0517 103.025 76.4151 102.953 75.7609 102.953C70.6951 102.953 66.5754 107.172 66.5754 112.361C66.5754 117.549 70.6951 121.769 75.7609 121.769C80.8267 121.769 84.9465 117.549 84.9465 112.361C84.9465 109.192 83.4038 106.38 81.0522 104.678L87.6032 89.3116C88.3458 89.4882 89.115 89.5832 89.9107 89.5832C90.702 89.5832 91.4755 89.4882 92.2138 89.3116L98.7648 104.678C96.4088 106.385 94.8705 109.192 94.8705 112.361C94.8705 117.549 98.9902 121.769 104.056 121.769C109.122 121.769 113.242 117.549 113.242 112.361C113.242 107.172 109.122 102.953 104.056 102.953H104.047ZM20.4351 117.989C17.4027 117.989 14.9361 115.462 14.9361 112.357C14.9361 109.251 17.4027 106.724 20.4351 106.724C23.4675 106.724 25.9341 109.251 25.9341 112.357C25.9341 115.462 23.4675 117.989 20.4351 117.989ZM54.2241 112.357C54.2241 115.462 51.7575 117.989 48.7251 117.989C45.6927 117.989 43.2261 115.462 43.2261 112.357C43.2261 109.251 45.6927 106.724 48.7251 106.724C51.7575 106.724 54.2241 109.251 54.2241 112.357ZM34.5803 85.8036C31.0131 85.8036 28.1133 82.8336 28.1133 79.1801C28.1133 75.5265 31.0131 72.5566 34.5803 72.5566C38.1475 72.5566 41.0473 75.5265 41.0473 79.1801C41.0473 82.8336 38.1475 85.8036 34.5803 85.8036ZM62.2382 21.089C66.1856 21.089 69.3992 24.3804 69.3992 28.4234C69.3992 32.4709 66.1856 35.7577 62.2382 35.7577C58.2864 35.7577 55.0772 32.4664 55.0772 28.4234C55.0772 24.3759 58.2908 21.089 62.2382 21.089ZM62.2382 41.0588C70.9729 41.0588 78.1872 47.8499 79.1061 56.5513H45.3658C46.2852 47.8497 53.4993 41.0588 62.2337 41.0588H62.2382ZM75.7554 117.988C72.723 117.988 70.2564 115.462 70.2564 112.356C70.2564 109.25 72.723 106.724 75.7554 106.724C78.7878 106.724 81.2544 109.25 81.2544 112.356C81.2544 115.462 78.7878 117.988 75.7554 117.988ZM83.4337 79.1845C83.4337 75.5309 86.3334 72.561 89.9006 72.561C93.4678 72.561 96.3676 75.5309 96.3676 79.1845C96.3676 82.8381 93.4678 85.808 89.9006 85.808C86.3334 85.808 83.4337 82.8381 83.4337 79.1845ZM104.046 117.988C101.014 117.988 98.5471 115.462 98.5471 112.356C98.5471 109.25 101.014 106.724 104.046 106.724C107.078 106.724 109.545 109.25 109.545 112.356C109.545 115.462 107.078 117.988 104.046 117.988Z" fill="black"/>
</g>
</svg>
