<svg width="119" height="117" viewBox="0 0 119 117" fill="none" xmlns="http://www.w3.org/2000/svg">
<g clip-path="url(#clip0_1_769)">
<path d="M46.2998 90.8412C55.8755 90.8412 63.6738 83.0826 63.6738 73.5559C63.6738 64.0291 55.8754 56.2705 46.2998 56.2705C36.7241 56.2705 28.9258 64.0291 28.9258 73.5559C28.9258 83.0826 36.7078 90.8412 46.2998 90.8412ZM46.2998 59.0562C54.3334 59.0562 60.8738 65.5635 60.8738 73.5559C60.8738 81.5485 54.3331 88.0555 46.2998 88.0555C38.2662 88.0555 31.7258 81.5482 31.7258 73.5559C31.7258 65.5632 38.261 59.0562 46.2998 59.0562Z" fill="black"/>
<path d="M109.755 0.33231H41.9695C40.2195 0.33231 38.7922 1.75233 38.7922 3.5097V9.79385H32.1149C30.8407 9.79385 29.8072 10.8222 29.8072 12.1063V56.661C25.3665 60.9483 22.6103 66.9279 22.6103 73.5549C22.6103 78.011 23.8845 82.1624 26.0392 85.7153L20.6799 91.0473C19.3345 90.2965 17.601 90.476 16.4526 91.6186L4.56894 103.442C3.18535 104.818 3.18535 107.049 4.56894 108.414L9.0369 112.86C9.7205 113.54 10.6337 113.888 11.5416 113.888C12.4495 113.888 13.3464 113.54 14.0464 112.86L25.93 101.037C27.0784 99.8941 27.2589 98.1693 26.4878 96.8146L29.8074 93.512V98.8169C29.8074 100.101 30.841 101.129 32.1151 101.129H87.8197C88.1861 101.129 88.5471 100.977 88.815 100.727C89.0229 100.531 94.0814 95.683 98.0846 91.8418H106.933C108.683 91.8418 110.11 90.4218 110.11 88.6807V47.4493C113.862 47.2698 116.87 44.1903 116.87 40.4143V7.41053C116.87 3.50942 113.676 0.33231 109.755 0.33231ZM41.5915 3.5097C41.5915 3.28662 41.7611 3.11795 41.9689 3.11795H57.3143C56.39 4.31495 55.8158 5.79489 55.8158 7.40531V9.78835L41.5918 9.79379L41.5915 3.5097ZM32.6009 12.5796H40.1204C40.1477 12.5796 40.1642 12.5959 40.1915 12.5959C40.2188 12.5959 40.2352 12.5796 40.2626 12.5796H55.8152V21.4373H44.3089C43.5378 21.4373 42.9089 22.063 42.9089 22.8302C42.9089 23.5973 43.5378 24.223 44.3089 24.223H55.8152V32.6236H44.3089C43.5378 32.6236 42.9089 33.2493 42.9089 34.0165C42.9089 34.7836 43.5378 35.4093 44.3089 35.4093H55.8152V40.4258C55.8152 41.7371 56.2089 42.945 56.8214 44.0059H44.3035C43.5324 44.0059 42.9035 44.6316 42.9035 45.3988C42.9035 46.1659 43.5324 46.7916 44.3035 46.7916H59.8841C60.8083 47.2214 61.8145 47.488 62.9084 47.488H67.1795V54.7571H60.5295C56.5701 51.7755 51.6372 49.98 46.2887 49.98C41.1918 49.98 36.4723 51.6123 32.595 54.3544L32.6009 12.5796ZM46.2945 52.776C57.8172 52.776 67.1853 62.1071 67.1853 73.5602C67.1853 85.0079 57.8065 94.3445 46.2945 94.3445C34.7882 94.3445 25.4037 85.0243 25.4037 73.5602C25.4037 62.0909 34.7717 52.776 46.2945 52.776ZM29.3517 90.0071L24.594 94.7406L22.7456 92.9016L27.6292 88.0429C28.1761 88.7393 28.7501 89.3922 29.3517 90.0071ZM23.9377 99.0607L12.054 110.884C11.7751 111.161 11.283 111.161 11.004 110.884L6.53608 106.438C6.24077 106.145 6.24077 105.688 6.53608 105.394L18.4197 93.5817C18.5619 93.4403 18.7533 93.375 18.9392 93.375C19.1361 93.375 19.3166 93.4457 19.4588 93.5817L23.9267 98.0269C24.0689 98.1684 24.1345 98.3479 24.1345 98.5438C24.1291 98.7396 24.0744 98.9192 23.9377 99.0607ZM32.6002 92.7657C36.4775 95.5079 41.197 97.1401 46.2938 97.1401C53.1134 97.1401 59.2438 94.2456 63.5698 89.648H74.8956C75.6667 89.648 76.2956 89.0223 76.2956 88.2552C76.2956 87.488 75.6667 86.8623 74.8956 86.8623H65.8503C67.3487 84.6914 68.4698 82.2376 69.1698 79.6206H87.6106C88.3817 79.6206 89.0107 78.9949 89.0107 78.2277C89.0107 77.4606 88.3817 76.8349 87.6106 76.8349L69.7284 76.8294C69.8816 75.7576 69.98 74.6857 69.98 73.5704C69.98 71.8838 69.7995 70.2569 69.4605 68.6683H87.5625C88.3609 68.6683 89.0062 68.0425 89.0062 67.2754C89.0062 66.5082 88.3608 65.8825 87.5625 65.8825H68.6625C67.5687 62.7649 65.8461 59.9357 63.6202 57.5525H67.175V57.7484C67.175 58.57 67.6672 59.2828 68.4328 59.5874C68.6734 59.6853 68.925 59.7289 69.1601 59.7289C69.707 59.7289 70.2266 59.5058 70.6149 59.0868L72.0586 57.5416H87.6112C88.3822 57.5416 89.0112 56.9159 89.0112 56.1488C89.0112 55.3816 88.3822 54.7559 87.6112 54.7559H74.6612L81.4369 47.4869H98.2089V86.8518H88.1682C87.3971 86.8518 86.7682 87.4775 86.7682 88.2446V98.3429L32.6008 98.3374L32.6002 92.7657ZM96.3282 89.6317C94.3704 91.5143 91.6086 94.1585 89.5688 96.1227V89.6317H96.3282ZM106.927 89.0441H100.851C100.949 88.8483 101.004 88.6524 101.004 88.4293V47.4821H107.304V88.6689C107.304 88.8756 107.14 89.0441 106.927 89.0441ZM114.069 40.4083C114.069 42.7751 112.138 44.6957 109.759 44.6957H81.1967C80.5678 44.6957 79.9498 44.9623 79.5287 45.4193L69.9803 55.6699V46.9646C69.9803 45.7132 68.9576 44.6957 67.6998 44.6957H62.9092C60.5412 44.6957 58.6108 42.7751 58.6108 40.4192V7.40992C58.6108 5.04318 60.5412 3.12256 62.9201 3.12256L109.754 3.11712C112.133 3.11712 114.064 5.03773 114.064 7.40448L114.069 40.4083Z" fill="black"/>
<path d="M86.3434 32.3017C88.4982 32.3017 90.2371 30.6151 90.2918 28.4714L90.7403 10.2556C90.7676 9.06949 90.3192 7.94317 89.4934 7.0945C87.8254 5.39689 84.8723 5.39689 83.1934 7.0945C82.3512 7.94328 81.9192 9.075 81.9465 10.2556L82.395 28.4714C82.4497 30.6151 84.1832 32.3017 86.3434 32.3017ZM85.2059 9.03684C85.5122 8.73215 85.9223 8.56349 86.3543 8.56349C86.7864 8.56349 87.1965 8.73215 87.5028 9.03684C87.809 9.34153 87.9621 9.76047 87.9512 10.1903L87.5028 28.4061C87.4864 29.0318 86.9833 29.5215 86.3543 29.5215C85.7254 29.5215 85.2223 29.0318 85.2059 28.4061L84.7575 10.1903C84.7301 9.74958 84.8997 9.34696 85.2059 9.03684Z" fill="black"/>
<path d="M86.339 33.5703C83.8617 33.5703 81.8438 35.578 81.8438 38.0426C81.8438 40.5073 83.8617 42.515 86.339 42.515C88.8163 42.515 90.8343 40.5073 90.8343 38.0426C90.8288 35.5725 88.8163 33.5703 86.339 33.5703ZM86.339 39.724C85.3984 39.724 84.6438 38.9731 84.6438 38.0373C84.6438 37.1016 85.3984 36.3507 86.339 36.3507C87.2796 36.3507 88.0343 37.1016 88.0343 38.0373C88.0288 38.9732 87.2741 39.724 86.339 39.724Z" fill="black"/>
</g>
<defs>
<clipPath id="clip0_1_769">
<rect width="119" height="117" fill="white"/>
</clipPath>
</defs>
</svg>
