<svg width="111" height="115" viewBox="0 0 111 115" fill="none" xmlns="http://www.w3.org/2000/svg">
<g clip-path="url(#clip0_1_776)">
<path d="M51.8545 74.0996C51.8545 65.5377 44.9062 60.4495 38.3053 57.3837C28.6475 54.0958 19.1769 57.7913 19.1769 57.7913L32.6131 70.9218L22.2328 71.0039L5.02344 54.2261C10.7677 48.6384 16.5108 43.0444 22.2536 37.4532L32.6339 37.4258L19.0449 50.6262C19.0449 50.6262 29.7131 47.0815 38.3277 49.9409C46.9423 52.8002 51.8544 58.8934 51.8544 58.8934L51.8761 18.5226L38.5638 31.7751L38.4817 21.5364L55.492 4.5625C61.1649 10.2205 66.8341 15.891 72.5031 21.5561L72.5211 31.7948L59.1371 18.3923L59.1538 58.8998C59.1538 58.8998 64.0606 52.8002 72.6752 49.9409C81.2898 47.0815 91.9581 50.6264 91.9581 50.6264L78.3691 37.4261L88.7494 37.4534L105.977 54.2261C100.25 59.8141 94.5049 65.4132 88.7702 71.0042L78.3899 70.922L91.8261 57.7916C91.8261 57.7916 82.2641 54.0836 72.6977 57.3839C66.031 60.4528 59.1586 65.4901 59.1539 74.1113L59.1373 104.925L51.8762 104.795L51.8545 74.0996Z" stroke="black" stroke-width="3" stroke-linecap="round" stroke-linejoin="round"/>
</g>
<defs>
<clipPath id="clip0_1_776">
<rect width="111" height="115" fill="white"/>
</clipPath>
</defs>
</svg>
