<svg width="114" height="123" viewBox="0 0 114 123" fill="none" xmlns="http://www.w3.org/2000/svg">
<g clip-path="url(#clip0_1_781)">
<path d="M87.6357 75.4961C94.6523 67.4783 100.942 66.7694 104.472 69.0879L104.483 69.083L104.722 69.2559C106.897 70.833 107.677 73.6098 106.233 75.5918L106.232 75.5908C103.879 78.8268 100.335 83.2099 96.9277 87.1455C93.742 90.8248 90.6445 94.1498 88.7451 95.7754L88.3818 96.0781C82.4628 100.821 75.8217 103.669 68.6396 104.528C61.7003 105.357 51.0734 105.571 41.8809 105.571C36.8689 105.571 32.2747 105.506 28.917 105.442V108.829C28.9167 109.77 28.1332 110.501 27.2021 110.501H8.74609C7.81504 110.501 7.03151 109.77 7.03125 108.829V80.6338C7.03125 79.6925 7.81492 78.9619 8.74609 78.9619H27.21C28.141 78.9621 28.9238 79.6926 28.9238 80.6338V83.5342C29.5676 83.0638 30.1303 82.5009 30.4951 81.835C31.5174 79.9691 33.8301 78.0181 36.8271 76.4727C39.8403 74.919 43.6093 73.7414 47.6191 73.4668C54.0051 73.0289 57.0589 73.663 60.5645 74.3945L61.7881 74.6465C64.7193 75.2376 68.2829 75.8135 74.6758 75.8135C77.4841 75.8135 79.6634 77.516 79.9736 80.1211V80.123C80.0546 80.8184 79.9923 81.5483 79.7852 82.2822C82.59 80.6619 84.9821 78.6716 86.9385 76.3145L87.6357 75.4961ZM10.46 107.158H25.4922L25.4873 82.3057H10.46V107.158ZM102.68 71.9453C101.727 71.2578 100.256 71.0717 98.5596 71.5449L98.2168 71.6484C95.5818 72.5047 92.5991 74.817 89.6055 78.4219C85.0186 83.9422 78.4297 87.6502 70.0527 89.4697C62.5074 91.1212 56.323 90.5914 56.0361 90.5654H56.0342C55.1082 90.4787 54.3981 89.6793 54.4863 88.7432V88.7402C54.5798 87.8113 55.4196 87.1477 56.3535 87.2344H56.3623L56.3711 87.2354C56.3907 87.2369 57.8634 87.3628 60.2119 87.2969C62.5726 87.2306 65.8016 86.9711 69.3057 86.2041L69.3584 86.1924H69.3633C72.2657 85.5353 74.1227 84.4573 75.2217 83.3711C76.3308 82.2748 76.6492 81.196 76.5674 80.5059C76.5158 80.0726 76.3248 79.7523 76.0312 79.5322C75.7292 79.3059 75.2789 79.1572 74.6748 79.1572C67.0183 79.1572 63.201 78.3615 59.8457 77.6621C56.5702 76.9795 53.7695 76.395 47.8574 76.8008C44.2596 77.0475 40.9798 78.1216 38.4355 79.4375C35.8682 80.7655 34.1242 82.2996 33.5137 83.4131C32.5987 85.0825 31.036 86.4194 28.9199 87.4277L28.9219 102.104C38.3644 102.285 57.7222 102.47 68.2275 101.216C74.7443 100.438 80.7902 97.8453 86.207 93.502C87.7495 92.263 90.8202 89.007 94.1445 85.1816C97.4584 81.3683 100.989 77.0314 103.443 73.6602C103.551 73.5122 103.594 73.2675 103.473 72.9336C103.353 72.6028 103.085 72.2381 102.68 71.9453ZM57.001 9.5C57.6709 9.50003 58.2856 9.88096 58.5645 10.4863L66.7998 28.2773L86.8877 30.335H86.8896C87.4256 30.392 87.9015 30.6887 88.1777 31.1357H88.2275L88.3408 31.4805C88.5494 32.1126 88.3629 32.8038 87.8535 33.2451L72.8672 46.2949L77.0391 65.3486L77.0615 65.4717C77.1447 66.0475 76.9131 66.6157 76.4648 66.9824L76.3652 67.0576C76.066 67.2686 75.7134 67.371 75.3652 67.3711C75.0752 67.3711 74.7778 67.3017 74.5107 67.1504L57.001 57.4199L39.4883 67.1523C38.91 67.4746 38.1852 67.4428 37.6377 67.0576C37.0878 66.6705 36.8231 66.0046 36.9629 65.3525L36.9639 65.3506L41.1348 46.2949L26.1494 33.2451C25.6429 32.8062 25.4469 32.1142 25.6631 31.4766C25.8771 30.8457 26.4464 30.4013 27.1143 30.335L47.2012 28.2773L55.4375 10.4854C55.7169 9.87948 56.3363 9.5 57.001 9.5ZM49.9189 30.5225L49.9199 30.5234C49.6687 31.0759 49.1325 31.4409 48.5352 31.501L31.3193 33.2666L44.1602 44.4473C44.6191 44.8459 44.8257 45.4519 44.6973 46.0439L41.1162 62.3975L56.1514 54.0449C56.6102 53.7899 57.1609 53.7582 57.6436 53.9482L57.8457 54.0439L57.8477 54.0449L72.8809 62.3975L69.3008 46.0449C69.1879 45.5244 69.3372 44.9963 69.6777 44.6074L69.8369 44.4482L82.668 33.2666L65.4531 31.502C64.8529 31.4416 64.3246 31.0737 64.0703 30.5273L56.9941 15.2373L49.9189 30.5225Z" fill="black"/>
</g>
<defs>
<clipPath id="clip0_1_781">
<rect width="114" height="123" fill="white"/>
</clipPath>
</defs>
</svg>
